<?xml version="1.0" encoding="UTF-8" standalone="no"?>
<svg
   xmlns:dc="http://purl.org/dc/elements/1.1/"
   xmlns:cc="http://creativecommons.org/ns#"
   xmlns:rdf="http://www.w3.org/1999/02/22-rdf-syntax-ns#"
   xmlns:svg="http://www.w3.org/2000/svg"
   xmlns="http://www.w3.org/2000/svg"
   viewBox="0 0 816 469.33334"
   height="469.33334"
   width="816"
   xml:space="preserve"
   id="svg2"
   version="1.1"><metadata
     id="metadata8"><rdf:RDF><cc:Work
         rdf:about=""><dc:format>image/svg+xml</dc:format><dc:type
           rdf:resource="http://purl.org/dc/dcmitype/StillImage" /></cc:Work></rdf:RDF></metadata><defs
     id="defs6"><clipPath
       id="clipPath18"
       clipPathUnits="userSpaceOnUse"><path
         id="path16"
         d="M 0,352 H 612 V 0 H 0 Z" /></clipPath></defs><g
     transform="matrix(1.3333333,0,0,-1.3333333,0,469.33333)"
     id="g10"><g
       id="g12"><g
         clip-path="url(#clipPath18)"
         id="g14"><g
           transform="translate(144.186,283.8472)"
           id="g20"><path
             id="path22"
             style="fill:#7a6e67;fill-opacity:1;fill-rule:nonzero;stroke:none"
             d="m 0,0 c 2.519,2.414 5.469,3.591 8.846,3.591 3.38,0 6.326,-1.177 8.85,-3.591 2.516,-2.411 3.75,-5.414 3.75,-9.005 v -199.451 c 0,-3.594 -1.234,-6.596 -3.75,-9.007 -2.524,-2.411 -5.47,-3.595 -8.85,-3.595 -3.377,0 -6.327,1.184 -8.846,3.595 -2.521,2.411 -3.75,5.413 -3.75,9.007 v 74.526 c 0,3.589 -1.237,6.542 -3.756,8.953 -2.518,2.41 -5.468,3.644 -8.848,3.644 H -27.61 c -3.38,0 -6.274,1.184 -8.687,3.595 -2.411,2.41 -3.645,5.412 -3.645,9.007 0,3.595 1.234,6.595 3.645,9.005 2.413,2.415 5.307,3.592 8.687,3.592 h 11.256 c 3.38,0 6.33,1.234 8.848,3.647 2.519,2.411 3.756,5.361 3.756,8.956 v 74.526 c 0,3.591 1.229,6.594 3.75,9.005" /></g><g
           transform="translate(58.5054,187.7134)"
           id="g24"><path
             id="path26"
             style="fill:#7a6e67;fill-opacity:1;fill-rule:nonzero;stroke:none"
             d="m 0,0 c 3.38,0 6.33,-1.177 8.85,-3.592 2.52,-2.41 3.75,-5.41 3.75,-9.005 0,-3.595 -1.23,-6.597 -3.75,-9.007 C 6.33,-24.015 3.38,-25.199 0,-25.199 h -10.989 c -3.594,0 -6.544,-1.234 -8.955,-3.644 -2.411,-2.411 -3.644,-5.365 -3.644,-8.953 v -74.526 c 0,-3.595 -1.181,-6.596 -3.595,-9.008 -2.411,-2.41 -5.414,-3.594 -9.005,-3.594 h -0.271 c -3.377,0 -6.326,1.184 -8.846,3.594 -2.52,2.412 -3.754,5.413 -3.754,9.008 v 199.45 c 0,3.592 1.234,6.595 3.754,9.006 2.52,2.413 5.469,3.591 8.846,3.591 h 0.271 c 3.591,0 6.594,-1.178 9.005,-3.591 2.414,-2.411 3.595,-5.414 3.595,-9.006 V 12.603 c 0,-3.595 1.233,-6.545 3.644,-8.956 C -17.533,1.233 -14.583,0 -10.989,0 Z" /></g><g
           transform="translate(316.4746,149.917)"
           id="g28"><path
             id="path30"
             style="fill:#7a6e67;fill-opacity:1;fill-rule:nonzero;stroke:none"
             d="m 0,0 c -1.072,1.072 -1.607,4.984 -1.607,11.8 0,6.803 0.479,10.665 1.445,11.686 1.016,0.96 4.877,1.446 11.686,1.446 h 72.914 c 6.814,0 10.726,-0.536 11.798,-1.608 C 97.309,22.253 97.844,18.391 97.844,11.8 97.844,4.984 97.309,1.072 96.236,0 95.164,-1.071 91.252,-1.607 84.438,-1.607 H 11.524 C 4.934,-1.607 1.072,-1.071 0,0 m 85.515,24.396 c 3.594,0 6.596,-1.284 9.114,-3.913 2.517,-2.578 3.75,-5.63 3.75,-9.225 0,-0.156 -0.049,-0.43 -0.105,-0.804 C 98.168,10.08 98.112,9.807 98.112,9.65 97.202,3.053 95.215,-4.666 92.111,-13.405 88.947,-22.14 85.67,-29.329 82.293,-34.848 71.572,-52.541 57.362,-66.482 39.67,-76.675 22.353,-86.698 3.103,-91.682 -17.963,-91.682 c -21.608,0 -41.285,5.252 -58.977,15.818 -18.069,10.721 -32.275,25.037 -42.627,42.891 -10.562,18.073 -15.813,37.633 -15.813,58.708 0,21.287 5.201,40.855 15.545,58.709 10.562,18.067 24.826,32.329 42.895,42.891 5.523,3.377 12.546,6.485 21.071,9.276 8.471,2.735 16.03,4.558 22.624,5.471 h 1.608 c 3.594,0 6.649,-1.287 9.279,-3.863 2.571,-2.626 3.856,-5.682 3.856,-9.277 0,-3.213 -1.124,-6.057 -3.376,-8.577 -2.197,-2.517 -4.932,-3.912 -8.148,-4.286 -12.332,-1.611 -23.594,-5.47 -33.779,-11.529 -5.737,-3.379 -11.797,-8.365 -18.227,-14.904 -6.437,-6.488 -11.37,-12.603 -14.747,-18.336 -8.203,-13.781 -12.332,-28.954 -12.332,-45.575 0,-16.621 4.129,-31.79 12.332,-45.57 3.377,-5.744 8.364,-11.91 14.905,-18.502 6.489,-6.591 12.599,-11.631 18.336,-15.014 13.777,-8.197 28.953,-12.328 45.575,-12.328 h 0.535 c 12.867,0 25.202,2.785 36.994,8.311 11.955,5.737 22.142,13.244 30.559,22.52 8.583,9.269 14.851,20.103 18.77,32.431 1.232,3.757 2.515,9.121 3.756,16.086 0.536,2.847 2.03,5.363 4.554,7.512 2.522,2.143 5.25,3.215 8.31,3.215" /></g><g
           transform="translate(604.7969,279.1313)"
           id="g32"><path
             id="path34"
             style="fill:#7a6e67;fill-opacity:1;fill-rule:nonzero;stroke:none"
             d="m 0,0 -0.269,-208.032 c 0,-3.588 -1.288,-6.703 -3.861,-9.382 -2.624,-2.678 -5.682,-4.024 -9.276,-4.024 -3.589,0 -6.702,1.346 -9.382,4.024 -2.68,2.679 -4.019,5.794 -4.019,9.382 V -49.688 L -53.076,-89.97 c -2.793,-4.282 -6.33,-6.699 -11.531,-6.699 -2.68,0 -4.804,0.569 -6.437,1.606 -1.744,1.106 -3.377,2.789 -4.716,5.093 -1.339,2.305 -1.987,4.558 -1.987,6.7 0,2.683 0.618,4.775 1.614,6.436 L -26.003,6.7 c 2.629,4.385 6.33,6.702 11.525,6.702 l 0.573,-0.009 0.499,0.009 c 3.594,0 6.703,-1.339 9.381,-4.021 C -1.339,6.7 0,3.591 0,0" /></g><g
           transform="translate(457.0596,227.1348)"
           id="g36"><path
             id="path38"
             style="fill:#7a6e67;fill-opacity:1;fill-rule:nonzero;stroke:none"
             d="m 0,0 -0.206,-156.035 c 0,-3.588 -1.283,-6.703 -3.912,-9.382 -2.573,-2.679 -5.631,-4.024 -9.22,-4.024 -3.588,0 -6.703,1.345 -9.381,4.024 -2.679,2.679 -4.025,5.794 -4.025,9.382 v 207.903 0.129 0.164 0.078 l 0.007,0.09 c 0.092,5.031 2.341,8.728 6.696,11.195 l 0.269,0.265 c 1.556,1.04 3.62,1.576 6.185,1.607 h 0.082 l 0.043,0.003 h 0.124 l 0.169,-0.003 h 0.074 l 0.094,-0.003 c 5.008,-0.094 8.695,-2.33 11.164,-6.656 l 0.024,-0.041 c 0.238,-0.377 0.449,-0.763 0.636,-1.155 l 49.5,-82.379 c 0.991,-1.654 1.608,-3.753 1.608,-6.435 0,-2.143 -0.698,-4.395 -2.043,-6.701 -1.339,-2.304 -2.916,-3.986 -4.66,-5.092 -1.633,-1.037 -3.75,-1.607 -6.435,-1.607 -2.149,0 -4.397,0.697 -6.702,2.034 -2.3,1.34 -3.958,2.937 -5.091,4.665 z" /></g><g
           transform="translate(100.9434,179.0225)"
           id="g40"><path
             id="path42"
             style="fill:#7a6e67;fill-opacity:1;fill-rule:nonzero;stroke:none"
             d="m 0,0 -0.269,-9.382 c 0,-3.594 -1.286,-6.702 -3.859,-9.382 -2.629,-2.684 -5.685,-4.024 -9.276,-4.024 -3.592,0 -6.703,1.34 -9.382,4.024 -2.682,2.68 -4.022,5.788 -4.022,9.382 V 0 c 0,3.592 1.34,6.701 4.022,9.382 2.679,2.679 5.79,4.021 9.382,4.021 3.591,0 6.699,-1.342 9.385,-4.021 C -1.341,6.701 0,3.592 0,0" /></g><g
           transform="translate(530.3389,179.0225)"
           id="g44"><path
             id="path46"
             style="fill:#7a6e67;fill-opacity:1;fill-rule:nonzero;stroke:none"
             d="m 0,0 -0.267,-9.382 c 0,-3.594 -1.29,-6.702 -3.856,-9.382 -2.629,-2.684 -5.689,-4.024 -9.282,-4.024 -3.588,0 -6.703,1.34 -9.383,4.024 -2.678,2.68 -4.017,5.788 -4.017,9.382 V 0 c 0,3.592 1.339,6.701 4.017,9.382 2.68,2.679 5.795,4.021 9.383,4.021 3.593,0 6.702,-1.342 9.386,-4.021 C -1.339,6.701 0,3.592 0,0" /></g><g
           transform="translate(34.1689,341.0225)"
           id="g48"><path
             id="path50"
             style="fill:#7a6e67;fill-opacity:1;fill-rule:nonzero;stroke:none"
             d="m 0,0 -1.47,-0.243 c -0.925,-0.08 -1.386,-0.367 -1.386,-0.856 v -23.337 c 0,-0.323 0.352,-0.566 1.06,-0.732 0.706,-0.165 1.062,-0.364 1.062,-0.61 0,-0.19 -0.07,-0.368 -0.203,-0.53 h -6.937 c -0.108,0.106 -0.165,0.19 -0.165,0.244 0,0.136 0.044,0.245 0.125,0.326 l 1.85,0.324 c 0.726,0.166 1.086,0.511 1.086,1.029 v 13.577 h -14.605 v -13.45 c 0,-0.33 0.327,-0.588 0.976,-0.779 0.672,-0.137 1.139,-0.395 1.391,-0.782 -0.052,-0.164 -0.108,-0.273 -0.161,-0.327 l -0.247,-0.162 h -6.933 l -0.165,0.405 c 0.081,0.221 0.149,0.371 0.206,0.452 0.161,0.162 0.638,0.283 1.426,0.368 0.788,0.081 1.184,0.352 1.184,0.812 l 0.121,23.01 c 0,0.295 -0.392,0.589 -1.184,0.875 -0.787,0.286 -1.139,0.714 -1.058,1.283 h 6.936 c 0.243,-0.296 0.34,-0.514 0.284,-0.65 -0.162,-0.318 -0.673,-0.568 -1.53,-0.73 -0.831,-0.081 -1.246,-0.351 -1.246,-0.812 v -8.413 h 14.605 v 8.73 c 0,0.353 -0.351,0.62 -1.061,0.797 -0.704,0.179 -1.087,0.347 -1.14,0.509 0,0.136 0.121,0.326 0.362,0.569 h 6.496 C -0.161,0.735 -0.056,0.601 0,0.492 0.081,0.302 0.081,0.138 0,0 m 142.218,-6.042 c 0.708,-2.075 1.059,-4.115 1.059,-6.134 0,-2.31 -0.455,-4.497 -1.364,-6.553 -0.912,-2.059 -2.236,-3.807 -3.978,-5.254 -1.851,-1.549 -4.08,-2.325 -6.69,-2.325 -0.57,0 -1.128,0.041 -1.673,0.122 -0.545,0.081 -1.116,0.23 -1.714,0.448 -2.068,0.736 -3.738,2.209 -5.018,4.411 -1.058,1.857 -1.712,3.977 -1.955,6.379 0,3.209 0.679,6.168 2.04,8.859 1.496,2.971 3.601,5.071 6.32,6.295 1.115,0.517 2.218,0.776 3.305,0.776 1.115,0 2.19,-0.231 3.223,-0.695 0.546,-0.19 1.081,-0.449 1.611,-0.776 0.531,-0.324 1.069,-0.704 1.611,-1.149 0.844,-0.679 1.504,-1.342 1.977,-1.997 0.476,-0.654 0.891,-1.454 1.246,-2.407 m -1.633,-13.366 c 0.979,1.966 1.471,3.856 1.471,5.681 0,2.261 -0.775,4.726 -2.327,7.401 -0.759,1.277 -1.563,2.308 -2.407,3.099 -0.922,0.876 -1.9,1.455 -2.938,1.741 -1.033,0.284 -1.955,0.427 -2.772,0.427 -1.115,0 -2.174,-0.202 -3.183,-0.613 -1.006,-0.406 -1.972,-1.072 -2.894,-2.006 -0.929,-0.922 -1.633,-2.106 -2.124,-3.554 -0.486,-1.443 -0.733,-2.896 -0.733,-4.374 0,-1.195 0.129,-2.376 0.387,-3.554 0.258,-1.171 0.604,-2.255 1.04,-3.264 0.708,-1.691 1.817,-3.052 3.325,-4.093 1.509,-1.031 3.135,-1.547 4.874,-1.547 1.821,0 3.447,0.373 4.874,1.121 1.43,0.747 2.567,1.931 3.407,3.535 m 146.667,15.29 -0.742,2.284 c -0.268,0.654 -0.79,1.074 -1.564,1.264 l -2.217,0.367 -2.591,0.122 -1.642,-0.122 h -1.85 v -23.699 c 0.025,-0.437 0.203,-0.733 0.53,-0.898 l 0.896,-0.327 c 0.053,-0.054 0.407,-0.121 1.063,-0.206 0.567,0 0.896,-0.296 0.977,-0.894 l -0.697,-0.081 h -0.686 -1.106 -5.995 c -0.11,0.054 -0.137,0.19 -0.081,0.405 l 0.409,0.57 c 0.189,0.25 0.665,0.371 1.424,0.371 0.817,0 1.226,0.299 1.226,0.898 v 23.861 h -1.306 -1.469 c -1.552,0 -2.888,-0.081 -4.019,-0.236 -1.127,-0.165 -1.881,-0.483 -2.262,-0.966 -0.108,-0.429 -0.211,-0.809 -0.307,-1.155 -0.095,-0.355 -0.222,-0.704 -0.387,-1.046 -0.162,-0.533 -0.38,-0.851 -0.653,-0.963 l 0.043,2.635 v 1.336 c 0,0.43 0.024,0.931 0.08,1.495 h 22.764 l 0.162,-1.14 V -1.548 -2.893 Z M 429.8,-20.76 l 0.118,-2.816 -0.044,-1.507 c 0,-0.465 -0.062,-0.873 -0.199,-1.225 h -20.072 c -0.274,0.15 -0.312,0.325 -0.124,0.53 0.136,0.081 0.311,0.121 0.535,0.121 h 0.486 c 0.323,0 0.592,0.081 0.798,0.243 0.199,0.166 0.348,0.343 0.423,0.539 l 0.087,0.611 v 23.368 c 0,0.494 -0.318,0.796 -0.941,0.896 l -1.632,0.125 c -0.243,0 -0.368,0.149 -0.368,0.448 0,0.19 0.125,0.324 0.368,0.409 h 17.662 l 0.042,-2 v -0.938 c 0,-0.299 0.033,-0.638 0.082,-1.022 v -0.65 l -0.082,-0.611 c -0.129,0.249 -0.273,0.623 -0.403,1.121 -0.088,0.443 -0.194,0.748 -0.331,0.916 l -0.616,1.374 C 425.339,-0.277 424.947,0 424.405,0 h -10.441 v -9.627 l 10.851,0.043 c 0.538,0 0.985,0.339 1.346,1.019 l 0.697,1.713 0.288,-0.489 -0.044,-0.652 v -0.572 -1.062 l 0.044,-1.06 -0.044,-1.059 c 0,-0.299 -0.068,-0.585 -0.205,-0.856 -0.187,0.081 -0.467,0.454 -0.835,1.121 -0.362,0.667 -0.779,1.028 -1.247,1.081 l -10.851,0.04 v -15.091 l 12.16,0.081 c 0.873,0 1.533,0.277 1.98,0.834 0.45,0.558 0.811,1.328 1.08,2.306 v 0.857 c 0,0.408 0.204,0.613 0.616,0.613 m 140.828,-0.122 v -5.426 h -18.726 l -0.287,0.449 c -0.074,0.215 -0.062,0.38 0.044,0.489 0.76,0.109 1.302,0.591 1.633,1.433 0.218,0.598 0.322,1.504 0.322,2.701 v 1.065 1.47 17.477 c 0,0.492 -0.143,0.776 -0.447,0.86 l -0.692,0.202 h -0.487 -0.498 c -0.324,0 -0.486,0.11 -0.486,0.328 0,0.189 0.088,0.354 0.25,0.488 0.162,0.135 0.361,0.219 0.611,0.243 h 2.729 l 1.718,0.085 c 0.406,0 0.847,-0.007 1.321,-0.016 0.473,-0.012 0.984,-0.034 1.532,-0.069 l -0.125,-0.336 -0.316,-0.34 -1.527,-0.383 c -0.873,-0.081 -1.296,-0.367 -1.296,-0.863 v -24.058 l 2.399,-0.044 h 2.484 2.094 2.381 c 0.51,0 0.915,0.022 1.195,0.062 0.287,0.041 0.723,0.128 1.32,0.253 0.598,0.121 0.985,0.719 1.147,1.788 0.162,1.065 0.461,1.734 0.891,2.012 l 0.244,0.209 c 0.136,0.136 0.261,0.177 0.366,0.124 z" /></g><g
           transform="translate(34.1689,341.0225)"
           id="g52"><path
             id="path54"
             style="fill:none;stroke:#7a6e67;stroke-width:0.28299999;stroke-linecap:butt;stroke-linejoin:miter;stroke-miterlimit:22.9260006;stroke-dasharray:none;stroke-opacity:1"
             d="m 0,0 -1.47,-0.243 c -0.925,-0.08 -1.386,-0.367 -1.386,-0.856 v -23.337 c 0,-0.323 0.352,-0.566 1.06,-0.732 0.706,-0.165 1.062,-0.364 1.062,-0.61 0,-0.19 -0.07,-0.368 -0.203,-0.53 h -6.937 c -0.108,0.106 -0.165,0.19 -0.165,0.244 0,0.136 0.044,0.245 0.125,0.326 l 1.85,0.324 c 0.726,0.166 1.086,0.511 1.086,1.029 v 13.577 h -14.605 v -13.45 c 0,-0.33 0.327,-0.588 0.976,-0.779 0.672,-0.137 1.139,-0.395 1.391,-0.782 -0.052,-0.164 -0.108,-0.273 -0.161,-0.327 l -0.247,-0.162 h -6.933 l -0.165,0.405 c 0.081,0.221 0.149,0.371 0.206,0.452 0.161,0.162 0.638,0.283 1.426,0.368 0.788,0.081 1.184,0.352 1.184,0.812 l 0.121,23.01 c 0,0.295 -0.392,0.589 -1.184,0.875 -0.787,0.286 -1.139,0.714 -1.058,1.283 h 6.936 c 0.243,-0.296 0.34,-0.514 0.284,-0.65 -0.162,-0.318 -0.673,-0.568 -1.53,-0.73 -0.831,-0.081 -1.246,-0.351 -1.246,-0.812 v -8.413 h 14.605 v 8.73 c 0,0.353 -0.351,0.62 -1.061,0.797 -0.704,0.179 -1.087,0.347 -1.14,0.509 0,0.136 0.121,0.326 0.362,0.569 h 6.496 C -0.161,0.735 -0.056,0.601 0,0.492 0.081,0.302 0.081,0.138 0,0 Z m 142.218,-6.042 c 0.708,-2.075 1.059,-4.115 1.059,-6.134 0,-2.31 -0.455,-4.497 -1.364,-6.553 -0.912,-2.059 -2.236,-3.807 -3.978,-5.254 -1.851,-1.549 -4.08,-2.325 -6.69,-2.325 -0.57,0 -1.128,0.041 -1.673,0.122 -0.545,0.081 -1.116,0.23 -1.714,0.448 -2.068,0.736 -3.738,2.209 -5.018,4.411 -1.058,1.857 -1.712,3.977 -1.955,6.379 0,3.209 0.679,6.168 2.04,8.859 1.496,2.971 3.601,5.071 6.32,6.295 1.115,0.517 2.218,0.776 3.305,0.776 1.115,0 2.19,-0.231 3.223,-0.695 0.546,-0.19 1.081,-0.449 1.611,-0.776 0.531,-0.324 1.069,-0.704 1.611,-1.149 0.844,-0.679 1.504,-1.342 1.977,-1.997 0.476,-0.654 0.891,-1.454 1.246,-2.407 z m -1.633,-13.366 c 0.979,1.966 1.471,3.856 1.471,5.681 0,2.261 -0.775,4.726 -2.327,7.401 -0.759,1.277 -1.563,2.308 -2.407,3.099 -0.922,0.876 -1.9,1.455 -2.938,1.741 -1.033,0.284 -1.955,0.427 -2.772,0.427 -1.115,0 -2.174,-0.202 -3.183,-0.613 -1.006,-0.406 -1.972,-1.072 -2.894,-2.006 -0.929,-0.922 -1.633,-2.106 -2.124,-3.554 -0.486,-1.443 -0.733,-2.896 -0.733,-4.374 0,-1.195 0.129,-2.376 0.387,-3.554 0.258,-1.171 0.604,-2.255 1.04,-3.264 0.708,-1.691 1.817,-3.052 3.325,-4.093 1.509,-1.031 3.135,-1.547 4.874,-1.547 1.821,0 3.447,0.373 4.874,1.121 1.43,0.747 2.567,1.931 3.407,3.535 z m 146.667,15.29 -0.742,2.284 c -0.268,0.654 -0.79,1.074 -1.564,1.264 l -2.217,0.367 -2.591,0.122 -1.642,-0.122 h -1.85 v -23.699 c 0.025,-0.437 0.203,-0.733 0.53,-0.898 l 0.896,-0.327 c 0.053,-0.054 0.407,-0.121 1.063,-0.206 0.567,0 0.896,-0.296 0.977,-0.894 l -0.697,-0.081 h -0.686 -1.106 -5.995 c -0.11,0.054 -0.137,0.19 -0.081,0.405 l 0.409,0.57 c 0.189,0.25 0.665,0.371 1.424,0.371 0.817,0 1.226,0.299 1.226,0.898 v 23.861 h -1.306 -1.469 c -1.552,0 -2.888,-0.081 -4.019,-0.236 -1.127,-0.165 -1.881,-0.483 -2.262,-0.966 -0.108,-0.429 -0.211,-0.809 -0.307,-1.155 -0.095,-0.355 -0.222,-0.704 -0.387,-1.046 -0.162,-0.533 -0.38,-0.851 -0.653,-0.963 l 0.043,2.635 v 1.336 c 0,0.43 0.024,0.931 0.08,1.495 h 22.764 l 0.162,-1.14 V -1.548 -2.893 Z M 429.8,-20.76 l 0.118,-2.816 -0.044,-1.507 c 0,-0.465 -0.062,-0.873 -0.199,-1.225 h -20.072 c -0.274,0.15 -0.312,0.325 -0.124,0.53 0.136,0.081 0.311,0.121 0.535,0.121 h 0.486 c 0.323,0 0.592,0.081 0.798,0.243 0.199,0.166 0.348,0.343 0.423,0.539 l 0.087,0.611 v 23.368 c 0,0.494 -0.318,0.796 -0.941,0.896 l -1.632,0.125 c -0.243,0 -0.368,0.149 -0.368,0.448 0,0.19 0.125,0.324 0.368,0.409 h 17.662 l 0.042,-2 v -0.938 c 0,-0.299 0.033,-0.638 0.082,-1.022 v -0.65 l -0.082,-0.611 c -0.129,0.249 -0.273,0.623 -0.403,1.121 -0.088,0.443 -0.194,0.748 -0.331,0.916 l -0.616,1.374 C 425.339,-0.277 424.947,0 424.405,0 h -10.441 v -9.627 l 10.851,0.043 c 0.538,0 0.985,0.339 1.346,1.019 l 0.697,1.713 0.288,-0.489 -0.044,-0.652 v -0.572 -1.062 l 0.044,-1.06 -0.044,-1.059 c 0,-0.299 -0.068,-0.585 -0.205,-0.856 -0.187,0.081 -0.467,0.454 -0.835,1.121 -0.362,0.667 -0.779,1.028 -1.247,1.081 l -10.851,0.04 v -15.091 l 12.16,0.081 c 0.873,0 1.533,0.277 1.98,0.834 0.45,0.558 0.811,1.328 1.08,2.306 v 0.857 c 0,0.408 0.204,0.613 0.616,0.613 z m 140.828,-0.122 v -5.426 h -18.726 l -0.287,0.449 c -0.074,0.215 -0.062,0.38 0.044,0.489 0.76,0.109 1.302,0.591 1.633,1.433 0.218,0.598 0.322,1.504 0.322,2.701 v 1.065 1.47 17.477 c 0,0.492 -0.143,0.776 -0.447,0.86 l -0.692,0.202 h -0.487 -0.498 c -0.324,0 -0.486,0.11 -0.486,0.328 0,0.189 0.088,0.354 0.25,0.488 0.162,0.135 0.361,0.219 0.611,0.243 h 2.729 l 1.718,0.085 c 0.406,0 0.847,-0.007 1.321,-0.016 0.473,-0.012 0.984,-0.034 1.532,-0.069 l -0.125,-0.336 -0.316,-0.34 -1.527,-0.383 c -0.873,-0.081 -1.296,-0.367 -1.296,-0.863 v -24.058 l 2.399,-0.044 h 2.484 2.094 2.381 c 0.51,0 0.915,0.022 1.195,0.062 0.287,0.041 0.723,0.128 1.32,0.253 0.598,0.121 0.985,0.719 1.147,1.788 0.162,1.065 0.461,1.734 0.891,2.012 l 0.244,0.209 c 0.136,0.136 0.261,0.177 0.366,0.124 z" /></g><g
           transform="translate(31.6431,19.8164)"
           id="g56"><path
             id="path58"
             style="fill:#7a6e67;fill-opacity:1;fill-rule:nonzero;stroke:none"
             d="m 0,0 c 0,-0.162 -0.177,-0.373 -0.529,-0.61 -0.303,-0.137 -0.492,-0.343 -0.574,-0.617 0,-1.85 -0.352,-3.469 -1.059,-4.852 -0.816,-1.584 -2.04,-2.766 -3.672,-3.551 -0.897,-0.412 -1.822,-0.736 -2.775,-0.979 -1.032,-0.218 -1.972,-0.329 -2.816,-0.329 -1.088,0 -2.161,0.162 -3.224,0.491 -1.059,0.331 -2.053,0.884 -2.977,1.676 -1.604,1.184 -2.767,2.655 -3.486,4.374 -0.72,1.718 -1.084,3.637 -1.084,5.717 0,1.035 0.081,2.15 0.245,3.352 0.272,2.543 1.253,4.834 2.944,6.879 1.443,1.769 3.368,3.164 5.766,4.197 0.9,0.405 1.972,0.611 3.23,0.611 0.872,0 1.754,-0.074 2.66,-0.224 l 2.529,-0.598 c 0.278,-0.074 0.539,-0.044 0.782,0.107 0.243,0.148 0.461,0.224 0.654,0.224 0.243,0 0.34,-0.15 0.284,-0.449 l 0.124,-1.327 0.243,-2.492 c 0,-0.48 -0.081,-0.959 -0.243,-1.446 -0.246,0.137 -0.48,0.461 -0.694,0.973 l -0.489,1.332 c -0.661,1.135 -1.57,1.945 -2.741,2.437 -0.988,0.342 -2.252,0.523 -3.81,0.523 -2.289,0 -4.192,-0.929 -5.725,-2.766 -1.224,-1.526 -2.209,-3.669 -2.943,-6.441 L -19.789,4.056 -19.91,1.855 c 0,-2.228 0.42,-4.247 1.264,-6.046 0.852,-1.807 2.141,-3.396 3.891,-4.742 1.088,-0.766 2.333,-1.146 3.716,-1.146 0.963,0 2.034,0.187 3.236,0.549 1.2,0.373 2.172,1.008 2.926,1.918 0.75,0.91 1.124,2.006 1.124,3.282 l 0.203,1.92 c 0,0.815 -0.312,1.346 -0.938,1.588 l -1.305,0.25 c -0.327,0.08 -0.505,0.298 -0.533,0.646 l 2.573,0.045 2.529,0.043 0.735,0.082 C -0.246,0.244 -0.081,0.162 0,0 m 54.423,-8.902 c -0.165,-0.579 -0.374,-1.047 -0.632,-1.388 -0.259,-0.35 -0.686,-0.574 -1.287,-0.686 h -1.099 c -0.546,0 -1.01,0.075 -1.39,0.223 -0.376,0.15 -0.748,0.4 -1.099,0.755 -0.982,1.065 -1.959,2.74 -2.937,5.026 -1.118,2.667 -1.907,4.343 -2.368,5.034 -1.143,1.682 -2.651,2.829 -4.526,3.426 0.054,0.325 0.283,0.487 0.692,0.487 l 0.937,-0.081 c 1.605,0 2.891,0.106 3.856,0.329 0.966,0.224 1.829,0.761 2.592,1.632 0.897,0.955 1.345,2.082 1.345,3.396 l -0.081,0.817 -0.205,1.022 c -0.3,1.114 -0.881,2.011 -1.753,2.678 -0.869,0.667 -1.919,1.146 -3.144,1.445 L 42.06,15.375 H 40.185 38.798 37.777 V 6.659 l 0.165,-8.466 v -6.839 c 0,-0.324 0.059,-0.611 0.19,-0.854 0.128,-0.25 0.318,-0.429 0.57,-0.542 l 1.012,-0.162 c 0.259,-0.049 0.43,-0.199 0.511,-0.447 l -1.51,-0.162 -1.879,-0.04 H 36.35 l -1.51,0.04 h -1.467 -0.411 c 0.083,0.217 0.448,0.398 1.102,0.535 0.651,0.074 1.019,0.268 1.103,0.567 l 0.364,2.235 0.125,2.692 v 2.28 16.658 c 0,0.274 -0.093,0.487 -0.287,0.654 l -0.853,0.567 c -0.165,0.137 -0.452,0.206 -0.86,0.206 h -0.489 c -0.081,0.081 -0.122,0.15 -0.122,0.206 0.11,0.111 0.191,0.174 0.247,0.199 l 4.404,0.123 2.772,0.125 c 2.424,0 4.327,-0.273 5.713,-0.815 1.878,-0.679 3.305,-1.906 4.282,-3.669 0.275,-0.598 0.412,-1.228 0.412,-1.881 0,-0.625 -0.069,-1.185 -0.206,-1.67 C 50.532,7.706 50.439,7.363 50.382,7.178 50.221,6.796 50.1,6.511 50.015,6.316 49.283,5.313 48.208,4.486 46.794,3.831 45.679,3.34 44.359,2.979 42.835,2.729 l 1.879,-1.264 0.897,-0.73 c 0.978,-0.847 2.134,-3.102 3.466,-6.777 0.599,-1.682 1.415,-3.004 2.449,-3.956 0.218,-0.162 0.436,-0.243 0.654,-0.243 0.299,0 0.598,0.106 0.897,0.324 l 0.817,0.896 c 0.081,0.163 0.149,0.45 0.202,0.86 0,0.405 -0.066,0.762 -0.202,1.06 -0.138,0.299 -0.356,0.61 -0.655,0.934 0.165,0 0.315,0.051 0.449,0.125 0.545,-0.692 0.816,-1.408 0.816,-2.156 0,-0.329 -0.025,-0.573 -0.081,-0.704 m 58.994,-1.788 c -0.217,-0.112 -0.682,-0.163 -1.389,-0.163 h -1.547 -2.081 -0.613 -0.736 c -0.081,0.299 0,0.538 0.246,0.7 l 1.427,0.373 c 0.355,0.273 0.53,0.623 0.53,1.072 0,0.322 -0.079,0.697 -0.243,1.109 l -0.49,1.233 -0.859,2.429 c -0.272,0.91 -0.582,1.645 -0.935,2.217 -1.034,-0.428 -2.096,-0.647 -3.183,-0.647 -0.844,0 -1.586,0.094 -2.224,0.286 -0.638,0.187 -1.3,0.523 -1.979,1.017 l -1.102,0.734 c -0.299,0.218 -0.557,0.542 -0.775,0.978 l -1.999,-4.772 -0.736,-1.688 c -0.271,-0.76 -0.405,-1.365 -0.405,-1.8 0,-0.605 0.15,-1.147 0.449,-1.645 0.052,-0.137 0.38,-0.287 0.977,-0.449 0.571,-0.081 0.856,-0.273 0.856,-0.572 l -0.121,-0.373 c -0.056,-0.026 -0.177,-0.051 -0.367,-0.081 -0.19,-0.026 -0.489,-0.07 -0.896,-0.121 h -2.041 -1.306 -0.449 c -1.198,0 -1.862,0.077 -1.999,0.244 -0.081,0.405 0.137,0.655 0.656,0.729 l 0.977,0.25 c 1.169,1.17 2.254,2.921 3.264,5.263 l 2.242,5.75 c -0.732,1.234 -1.211,1.969 -1.425,2.193 -0.655,0.791 -1.39,1.195 -2.203,1.195 h -0.735 c -0.615,0 -1.15,-0.236 -1.604,-0.697 C 90.386,3.856 90.223,3.625 90.123,3.383 90.013,3.139 89.958,2.828 89.958,2.441 V 1.795 l 0.244,-0.779 0.203,-0.655 c 0,-0.162 -0.093,-0.255 -0.282,-0.287 -0.247,0 -0.471,0.125 -0.674,0.375 C 89.243,0.691 89.1,0.91 89.019,1.096 88.938,1.29 88.87,1.452 88.816,1.589 l -0.123,1.015 c 0,1.065 0.395,1.906 1.183,2.536 0.926,0.759 1.903,1.139 2.932,1.139 h 0.612 c 0.325,-0.062 0.568,-0.125 0.733,-0.217 0.626,-0.269 1.24,-0.58 1.837,-0.966 0.598,-0.38 1.072,-0.76 1.427,-1.14 l 0.206,0.449 0.333,0.691 3.996,10.939 c 0.081,0.225 0.243,0.357 0.489,0.412 0.189,0 0.413,-0.136 0.654,-0.412 l 0.405,-0.778 2.735,-8.068 2.654,-8.085 c 1.114,-3.339 2.069,-6.019 2.856,-8.037 0.081,-0.213 0.448,-0.435 1.1,-0.648 0.654,-0.169 0.978,-0.331 0.978,-0.498 -0.026,-0.025 -0.041,-0.056 -0.041,-0.081 -0.106,-0.218 -0.229,-0.394 -0.365,-0.53 m -7.222,10.317 c -0.623,2.286 -1.461,4.94 -2.501,7.949 l -1.632,4.897 -1.375,-3.34 -2.099,-5.869 c 0.933,-1.301 1.707,-2.23 2.334,-2.778 0.542,-0.436 1.209,-0.816 2.002,-1.139 0.409,-0.169 0.871,-0.243 1.39,-0.243 0.741,0 1.364,0.173 1.881,0.523 m 67.645,16.079 c 0.081,-0.542 -0.056,-0.903 -0.412,-1.098 l -1.466,-0.491 c -0.324,-0.074 -0.57,-0.287 -0.736,-0.604 -0.732,-1.327 -1.236,-2.736 -1.507,-4.23 -0.109,-0.648 -0.203,-1.408 -0.286,-2.274 -0.081,-0.873 -0.125,-1.707 -0.125,-2.523 l 0.125,-3.8 v -2.542 l 0.12,-3.887 0.328,-5.483 c 0.052,-0.236 -0.11,-0.361 -0.488,-0.361 -0.247,0 -0.449,0.093 -0.615,0.287 -1.312,2.335 -3.111,5.27 -5.398,8.809 -1.801,2.852 -3.778,5.843 -5.931,8.97 l -4.214,6.124 -0.041,-8.853 v -9.468 -0.935 -0.735 c 0,-0.597 0.075,-1.065 0.225,-1.408 0.143,-0.336 0.461,-0.586 0.947,-0.755 l 1.202,-0.241 c 0.321,-0.056 0.483,-0.176 0.483,-0.368 l -0.121,-0.331 c -0.274,-0.348 -0.914,-0.529 -1.918,-0.529 l -1.267,0.044 h -0.447 c -0.166,0 -0.438,0.024 -0.816,0.081 l -0.695,-0.081 -0.571,-0.087 c -0.38,0 -0.654,0.155 -0.816,0.454 -0.081,0.217 0.041,0.449 0.369,0.692 l 0.815,0.609 c 0.652,0.985 1.099,1.932 1.346,2.861 0.11,0.461 0.191,0.977 0.243,1.551 0.056,0.566 0.084,1.258 0.084,2.081 v 2.367 1.913 1.637 1.384 1.184 1.021 0.853 0.778 0.693 0.567 0.535 0.449 1.427 1.506 0.449 c -0.084,0.656 -0.689,0.98 -1.817,0.98 -1.046,0 -1.641,0.222 -1.774,0.653 -0.029,0.167 0.034,0.306 0.184,0.431 0.149,0.123 0.373,0.222 0.672,0.303 l 1.552,0.331 1.018,0.119 c 0.435,0 0.775,-0.056 1.021,-0.162 0.218,-0.056 0.49,-0.255 0.814,-0.617 2.669,-3.233 5.183,-6.591 7.551,-10.075 1.931,-2.909 4.229,-6.733 6.895,-11.462 v 0.899 1.22 c 0,1.252 0.032,2.953 0.1,5.102 0.069,2.149 0.103,3.481 0.103,4 0,1.631 0.059,2.983 0.184,4.056 0.121,1.077 0.317,2.291 0.592,3.655 0.134,0.704 0.402,1.334 0.794,1.894 0.395,0.561 0.932,0.959 1.61,1.209 l 0.775,0.119 c 0.328,0 0.605,-0.068 0.838,-0.207 0.231,-0.136 0.386,-0.361 0.471,-0.69 m 105.217,0.565 c 0,-0.322 -0.382,-0.621 -1.144,-0.896 -1.167,-0.436 -1.986,-0.834 -2.449,-1.184 0,-1.009 0.069,-2.941 0.205,-5.806 0.137,-2.859 0.204,-5.239 0.204,-7.151 0,-2.43 0.062,-4.33 0.183,-5.719 0.125,-1.395 0.252,-2.192 0.387,-2.411 0,-0.99 0.085,-1.682 0.247,-2.055 0.164,-0.375 0.557,-0.679 1.182,-0.929 h 0.614 0.527 c 0.221,0 0.355,-0.062 0.41,-0.192 0.081,-0.269 0.029,-0.449 -0.164,-0.537 l -0.53,-0.244 h -1.714 -1.633 -0.528 c -1.333,0 -2.367,0.077 -3.103,0.244 -0.105,0.081 -0.174,0.15 -0.201,0.206 -0.029,0.106 0.027,0.231 0.161,0.361 0.138,0.137 0.564,0.25 1.287,0.331 0.72,0.081 1.082,0.28 1.082,0.609 l -0.122,6.81 -0.125,6.901 v 4.443 l 0.247,3.594 c -1.615,-2.23 -3.019,-4.597 -4.231,-7.101 -0.937,-1.982 -1.788,-4.125 -2.537,-6.404 l -2.142,-6.828 c -0.074,-0.293 -0.27,-0.393 -0.586,-0.312 -0.385,0.137 -0.583,0.405 -0.583,0.817 0,0.242 0.095,0.598 0.284,1.066 l 0.574,1.302 c -1.504,3.319 -2.931,6.21 -4.276,8.664 -0.878,1.644 -1.702,3.078 -2.471,4.342 -0.766,1.251 -1.622,2.523 -2.554,3.801 l 0.118,-7.048 0.368,-13.31 c 0,-0.276 0.112,-0.519 0.321,-0.737 l 0.787,-0.491 1.708,-0.287 c 0.137,-0.324 0.061,-0.567 -0.231,-0.729 h -0.511 l -2.074,-0.123 H 255 c -0.308,0 -0.717,-0.044 -1.211,-0.121 l -1.299,0.077 h -0.464 c -0.361,0.086 -0.623,0.136 -0.796,0.167 0.163,0.243 0.696,0.53 1.593,0.854 0.898,0.336 1.345,0.76 1.345,1.272 l 0.11,7.163 0.218,8.391 v 6.914 c -0.081,0.325 -0.328,0.619 -0.735,0.862 -0.275,0.217 -0.68,0.435 -1.225,0.653 h -0.407 l -1.224,-0.125 c -0.299,0 -0.461,0.1 -0.49,0.287 -0.052,0.218 0.014,0.387 0.206,0.491 l 0.571,0.206 h 1.182 1.145 c 0.786,0 1.453,-0.136 1.995,-0.386 0.546,-0.262 1.047,-0.785 1.511,-1.576 l 4.324,-7.219 c 1.469,-2.58 2.965,-5.545 4.488,-8.898 l 2.691,6.897 c 1.172,2.86 2.342,5.065 3.51,6.61 1.523,2.094 3.426,3.794 5.713,5.096 l 0.408,0.125 c 0.271,0 0.496,-0.063 0.674,-0.181 0.176,-0.118 0.248,-0.306 0.224,-0.556 m 60.296,-26.961 c -0.211,-0.112 -0.672,-0.163 -1.383,-0.163 h -1.551 -2.081 -0.616 -0.734 c -0.076,0.299 0,0.538 0.248,0.7 l 1.427,0.373 c 0.354,0.273 0.53,0.623 0.53,1.072 0,0.322 -0.074,0.697 -0.243,1.109 l -0.493,1.233 -0.86,2.429 c -0.268,0.91 -0.579,1.645 -0.933,2.217 -1.036,-0.428 -2.094,-0.647 -3.178,-0.647 -0.848,0 -1.589,0.094 -2.231,0.286 -0.634,0.187 -1.295,0.523 -1.975,1.017 l -1.103,0.734 c -0.299,0.218 -0.56,0.542 -0.771,0.978 l -2.006,-4.772 -0.73,-1.688 c -0.273,-0.76 -0.405,-1.365 -0.405,-1.8 0,-0.605 0.151,-1.147 0.449,-1.645 0.049,-0.137 0.373,-0.287 0.971,-0.449 0.574,-0.081 0.861,-0.273 0.861,-0.572 l -0.125,-0.373 c -0.05,-0.026 -0.175,-0.051 -0.361,-0.081 -0.194,-0.026 -0.493,-0.07 -0.898,-0.121 h -2.043 -1.309 -0.447 c -1.197,0 -1.858,0.077 -1.994,0.244 -0.088,0.405 0.136,0.655 0.648,0.729 l 0.984,0.25 c 1.17,1.17 2.254,2.921 3.264,5.263 l 2.244,5.75 c -0.736,1.234 -1.216,1.969 -1.433,2.193 -0.649,0.791 -1.383,1.195 -2.201,1.195 h -0.734 c -0.616,0 -1.153,-0.236 -1.6,-0.697 -0.218,-0.218 -0.38,-0.449 -0.48,-0.691 -0.106,-0.244 -0.169,-0.555 -0.169,-0.942 V 1.795 l 0.25,-0.779 0.199,-0.655 c 0,-0.162 -0.088,-0.255 -0.28,-0.287 -0.243,0 -0.468,0.125 -0.674,0.375 -0.206,0.242 -0.347,0.461 -0.429,0.647 -0.081,0.194 -0.15,0.356 -0.199,0.493 l -0.125,1.015 c 0,1.065 0.392,1.906 1.184,2.536 0.922,0.759 1.906,1.139 2.928,1.139 h 0.609 c 0.324,-0.062 0.574,-0.125 0.736,-0.217 0.623,-0.269 1.233,-0.58 1.837,-0.966 0.598,-0.38 1.072,-0.76 1.427,-1.14 l 0.199,0.449 0.338,0.691 3.998,10.939 c 0.081,0.225 0.243,0.357 0.493,0.412 0.193,0 0.406,-0.136 0.649,-0.412 l 0.41,-0.778 2.735,-8.068 2.655,-8.085 c 1.107,-3.339 2.061,-6.019 2.852,-8.037 0.081,-0.213 0.448,-0.435 1.097,-0.648 0.66,-0.169 0.983,-0.331 0.983,-0.498 -0.024,-0.025 -0.037,-0.056 -0.037,-0.081 -0.111,-0.218 -0.236,-0.394 -0.374,-0.53 m -7.22,10.317 c -0.623,2.286 -1.464,4.94 -2.499,7.949 l -1.631,4.897 -1.378,-3.34 -2.098,-5.869 c 0.933,-1.301 1.707,-2.23 2.33,-2.778 0.549,-0.436 1.209,-0.816 2.006,-1.139 0.41,-0.169 0.873,-0.243 1.389,-0.243 0.742,0 1.365,0.173 1.881,0.523 m 65.119,9.874 c 0.436,-0.866 0.823,-1.913 1.177,-3.141 0.274,-1.22 0.412,-2.298 0.412,-3.221 0,-1.358 -0.199,-2.752 -0.592,-4.185 -0.399,-1.421 -0.948,-2.791 -1.657,-4.1 -1.134,-2.068 -2.853,-3.576 -5.134,-4.523 -1.906,-0.79 -4.223,-1.184 -6.939,-1.184 l -3.016,0.163 -3.55,0.486 -1.059,-0.149 -1.802,-0.337 h -0.727 c 0.162,0.437 0.797,0.81 1.913,1.146 1.114,0.324 1.675,0.76 1.675,1.309 v 22.839 c 0,0.298 -0.13,0.516 -0.387,0.653 -0.262,0.13 -0.609,0.206 -1.047,0.206 h -0.734 -0.855 c -0.104,0.062 -0.148,0.174 -0.118,0.31 0.051,0.151 0.162,0.213 0.324,0.213 l 4.074,0.123 3.882,0.125 c 0.704,0 1.365,-0.011 1.976,-0.048 0.609,-0.033 1.177,-0.1 1.693,-0.2 0.492,0 0.997,-0.055 1.508,-0.173 0.523,-0.125 1.215,-0.325 2.081,-0.6 1.656,-0.51 3.014,-1.202 4.061,-2.055 1.047,-0.861 1.994,-2.082 2.841,-3.657 M 394.63,9.195 c -0.979,2.106 -2.587,3.713 -4.822,4.797 -1.963,0.978 -4.217,1.471 -6.746,1.471 h -0.984 l -1.721,-0.169 v -24.19 l 0.324,-0.486 2.08,-0.248 h 2.244 c 1.931,0 3.55,0.262 4.859,0.772 1.519,0.597 2.84,1.658 3.956,3.177 0.734,1.147 1.302,2.43 1.693,3.85 0.394,1.427 0.593,2.865 0.593,4.335 0,2.344 -0.486,4.567 -1.476,6.691 m 59.898,-18.097 c -0.162,-0.579 -0.373,-1.047 -0.635,-1.388 -0.255,-0.35 -0.685,-0.574 -1.283,-0.686 h -1.098 c -0.547,0 -1.008,0.075 -1.387,0.223 -0.382,0.15 -0.755,0.4 -1.105,0.755 -0.978,1.065 -1.955,2.74 -2.939,5.026 -1.11,2.667 -1.9,4.343 -2.368,5.034 -1.139,1.682 -2.647,2.829 -4.523,3.426 0.051,0.325 0.287,0.487 0.692,0.487 l 0.941,-0.081 c 1.6,0 2.89,0.106 3.849,0.329 0.973,0.224 1.832,0.761 2.592,1.632 0.897,0.955 1.346,2.082 1.346,3.396 l -0.074,0.817 -0.206,1.022 c -0.306,1.114 -0.885,2.011 -1.758,2.678 -0.864,0.667 -1.918,1.146 -3.146,1.445 l -1.258,0.162 h -1.88 -1.384 -1.022 V 6.659 l 0.162,-8.466 v -6.839 c 0,-0.324 0.063,-0.611 0.194,-0.854 0.131,-0.25 0.317,-0.429 0.566,-0.542 l 1.016,-0.162 c 0.255,-0.049 0.43,-0.199 0.51,-0.447 l -1.513,-0.162 -1.869,-0.04 h -0.492 l -1.513,0.04 h -1.464 -0.412 c 0.081,0.217 0.454,0.398 1.102,0.535 0.655,0.074 1.022,0.268 1.103,0.567 l 0.368,2.235 0.125,2.692 v 2.28 16.658 c 0,0.274 -0.099,0.487 -0.287,0.654 l -0.859,0.567 c -0.162,0.137 -0.45,0.206 -0.855,0.206 h -0.491 c -0.081,0.081 -0.125,0.15 -0.125,0.206 0.113,0.111 0.193,0.174 0.25,0.199 l 4.403,0.123 2.772,0.125 c 2.423,0 4.331,-0.273 5.714,-0.815 1.874,-0.679 3.307,-1.906 4.285,-3.669 0.268,-0.598 0.405,-1.228 0.405,-1.881 0,-0.625 -0.069,-1.185 -0.199,-1.67 -0.137,-0.493 -0.236,-0.836 -0.287,-1.021 -0.162,-0.382 -0.285,-0.667 -0.366,-0.862 -0.737,-1.003 -1.814,-1.83 -3.222,-2.485 -1.121,-0.491 -2.442,-0.852 -3.963,-1.102 l 1.883,-1.264 0.896,-0.73 c 0.971,-0.847 2.131,-3.102 3.463,-6.777 0.6,-1.682 1.422,-3.004 2.448,-3.956 0.22,-0.162 0.438,-0.243 0.656,-0.243 0.298,0 0.597,0.106 0.896,0.324 L 454,-9.021 c 0.079,0.163 0.148,0.45 0.204,0.86 0,0.405 -0.068,0.762 -0.204,1.06 -0.139,0.299 -0.357,0.61 -0.656,0.934 0.162,0 0.313,0.051 0.449,0.125 0.549,-0.692 0.816,-1.408 0.816,-2.156 0,-0.329 -0.026,-0.573 -0.081,-0.704 m 58.628,24.034 c 0.131,-0.542 -0.168,-0.903 -0.916,-1.077 -0.747,-0.174 -1.153,-0.287 -1.208,-0.343 -2.909,-2.175 -5.11,-4.952 -6.604,-8.355 -1.389,-3.152 -2.08,-6.628 -2.08,-10.426 0,-1.279 0.074,-2.606 0.236,-3.989 0.086,-0.386 0.742,-0.697 1.962,-0.94 0.542,-0.081 0.853,-0.331 0.941,-0.734 l -1.955,-0.121 -2.293,0.077 h -1.383 -0.817 -0.853 -0.449 c -0.169,0 -0.348,0.03 -0.554,0.092 -0.206,0.056 -0.35,0.174 -0.431,0.355 0.114,0.25 0.642,0.375 1.596,0.375 0.978,0 1.545,0.31 1.712,0.933 l 0.243,1.958 v 2.005 c 0,3.338 -0.623,6.597 -1.862,9.767 -1.239,3.166 -2.997,6.143 -5.265,8.915 -0.386,0.461 -0.871,0.692 -1.457,0.692 -0.25,0 -0.542,-0.087 -0.896,-0.261 -0.35,-0.181 -0.649,-0.674 -0.91,-1.496 -0.262,-0.809 -0.598,-1.14 -1.035,-0.971 0,0.866 0.087,1.631 0.262,2.305 0.18,0.66 0.573,1.227 1.171,1.688 0.137,0.111 0.336,0.255 0.611,0.454 0.105,0.074 0.286,0.176 0.524,0.28 0.243,0.107 0.572,0.195 0.977,0.244 0.38,0 0.716,-0.112 1.015,-0.325 1.663,-1.146 3.09,-2.747 4.28,-4.815 0.436,-0.815 1.39,-2.828 2.847,-6.036 l 1.271,-3.184 c 1.832,4.217 3.028,6.816 3.595,7.793 1.633,2.828 3.625,4.897 5.974,6.205 0.324,0.107 0.66,0.063 1.015,-0.148 0.355,-0.199 0.599,-0.512 0.736,-0.917 m 59.972,0.574 c 0.088,-0.542 -0.055,-0.903 -0.41,-1.098 l -1.47,-0.491 c -0.325,-0.074 -0.568,-0.287 -0.73,-0.604 -0.734,-1.327 -1.239,-2.736 -1.513,-4.23 -0.106,-0.648 -0.199,-1.408 -0.28,-2.274 C 568.644,6.136 568.6,5.302 568.6,4.486 l 0.125,-3.8 v -2.542 l 0.118,-3.887 0.329,-5.483 c 0.058,-0.236 -0.104,-0.361 -0.491,-0.361 -0.243,0 -0.449,0.093 -0.611,0.287 -1.309,2.335 -3.115,5.27 -5.395,8.809 -1.806,2.852 -3.788,5.843 -5.93,8.97 l -4.218,6.124 -0.042,-8.853 v -9.468 -0.935 -0.735 c 0,-0.597 0.074,-1.065 0.223,-1.408 0.143,-0.336 0.46,-0.586 0.947,-0.755 l 1.202,-0.241 c 0.319,-0.056 0.479,-0.176 0.479,-0.368 l -0.118,-0.331 c -0.266,-0.348 -0.908,-0.529 -1.918,-0.529 l -1.264,0.044 h -0.45 c -0.162,0 -0.435,0.024 -0.81,0.081 l -0.697,-0.081 -0.573,-0.087 c -0.38,0 -0.648,0.155 -0.817,0.454 -0.081,0.217 0.044,0.449 0.368,0.692 l 0.818,0.609 c 0.653,0.985 1.102,1.932 1.35,2.861 0.107,0.461 0.188,0.977 0.236,1.551 0.058,0.566 0.088,1.258 0.088,2.081 v 2.367 1.913 1.637 1.384 1.184 1.021 0.853 0.778 0.693 0.567 0.535 0.449 1.427 1.506 0.449 c -0.088,0.656 -0.685,0.98 -1.818,0.98 -1.047,0 -1.64,0.222 -1.776,0.653 -0.026,0.167 0.032,0.306 0.187,0.431 0.149,0.123 0.373,0.222 0.667,0.303 l 1.557,0.331 1.021,0.119 c 0.431,0 0.774,-0.056 1.017,-0.162 0.218,-0.056 0.491,-0.255 0.815,-0.617 2.666,-3.233 5.183,-6.591 7.55,-10.075 1.932,-2.909 4.223,-6.733 6.891,-11.462 v 0.899 1.22 c 0,1.252 0.037,2.953 0.099,5.102 0.074,2.149 0.112,3.481 0.112,4 0,1.631 0.055,2.983 0.173,4.056 0.125,1.077 0.325,2.291 0.6,3.655 0.137,0.704 0.398,1.334 0.79,1.894 0.394,0.561 0.936,0.959 1.614,1.209 l 0.772,0.119 c 0.331,0 0.611,-0.068 0.836,-0.207 0.236,-0.136 0.391,-0.361 0.472,-0.69" /></g><g
           transform="translate(31.6431,19.8164)"
           id="g60"><path
             id="path62"
             style="fill:none;stroke:#7a6e67;stroke-width:0.28299999;stroke-linecap:butt;stroke-linejoin:miter;stroke-miterlimit:22.9260006;stroke-dasharray:none;stroke-opacity:1"
             d="m 0,0 c 0,-0.162 -0.177,-0.373 -0.529,-0.61 -0.303,-0.137 -0.492,-0.343 -0.574,-0.617 0,-1.85 -0.352,-3.469 -1.059,-4.852 -0.816,-1.584 -2.04,-2.766 -3.672,-3.551 -0.897,-0.412 -1.822,-0.736 -2.775,-0.979 -1.032,-0.218 -1.972,-0.329 -2.816,-0.329 -1.088,0 -2.161,0.162 -3.224,0.491 -1.059,0.331 -2.053,0.884 -2.977,1.676 -1.604,1.184 -2.767,2.655 -3.486,4.374 -0.72,1.718 -1.084,3.637 -1.084,5.717 0,1.035 0.081,2.15 0.245,3.352 0.272,2.543 1.253,4.834 2.944,6.879 1.443,1.769 3.368,3.164 5.766,4.197 0.9,0.405 1.972,0.611 3.23,0.611 0.872,0 1.754,-0.074 2.66,-0.224 l 2.529,-0.598 c 0.278,-0.074 0.539,-0.044 0.782,0.107 0.243,0.148 0.461,0.224 0.654,0.224 0.243,0 0.34,-0.15 0.284,-0.449 l 0.124,-1.327 0.243,-2.492 c 0,-0.48 -0.081,-0.959 -0.243,-1.446 -0.246,0.137 -0.48,0.461 -0.694,0.973 l -0.489,1.332 c -0.661,1.135 -1.57,1.945 -2.741,2.437 -0.988,0.342 -2.252,0.523 -3.81,0.523 -2.289,0 -4.192,-0.929 -5.725,-2.766 -1.224,-1.526 -2.209,-3.669 -2.943,-6.441 L -19.789,4.056 -19.91,1.855 c 0,-2.228 0.42,-4.247 1.264,-6.046 0.852,-1.807 2.141,-3.396 3.891,-4.742 1.088,-0.766 2.333,-1.146 3.716,-1.146 0.963,0 2.034,0.187 3.236,0.549 1.2,0.373 2.172,1.008 2.926,1.918 0.75,0.91 1.124,2.006 1.124,3.282 l 0.203,1.92 c 0,0.815 -0.312,1.346 -0.938,1.588 l -1.305,0.25 c -0.327,0.08 -0.505,0.298 -0.533,0.646 l 2.573,0.045 2.529,0.043 0.735,0.082 C -0.246,0.244 -0.081,0.162 0,0 Z m 54.423,-8.902 c -0.165,-0.579 -0.374,-1.047 -0.632,-1.388 -0.259,-0.35 -0.686,-0.574 -1.287,-0.686 h -1.099 c -0.546,0 -1.01,0.075 -1.39,0.223 -0.376,0.15 -0.748,0.4 -1.099,0.755 -0.982,1.065 -1.959,2.74 -2.937,5.026 -1.118,2.667 -1.907,4.343 -2.368,5.034 -1.143,1.682 -2.651,2.829 -4.526,3.426 0.054,0.325 0.283,0.487 0.692,0.487 l 0.937,-0.081 c 1.605,0 2.891,0.106 3.856,0.329 0.966,0.224 1.829,0.761 2.592,1.632 0.897,0.955 1.345,2.082 1.345,3.396 l -0.081,0.817 -0.205,1.022 c -0.3,1.114 -0.881,2.011 -1.753,2.678 -0.869,0.667 -1.919,1.146 -3.144,1.445 L 42.06,15.375 H 40.185 38.798 37.777 V 6.659 l 0.165,-8.466 v -6.839 c 0,-0.324 0.059,-0.611 0.19,-0.854 0.128,-0.25 0.318,-0.429 0.57,-0.542 l 1.012,-0.162 c 0.259,-0.049 0.43,-0.199 0.511,-0.447 l -1.51,-0.162 -1.879,-0.04 H 36.35 l -1.51,0.04 h -1.467 -0.411 c 0.083,0.217 0.448,0.398 1.102,0.535 0.651,0.074 1.019,0.268 1.103,0.567 l 0.364,2.235 0.125,2.692 v 2.28 16.658 c 0,0.274 -0.093,0.487 -0.287,0.654 l -0.853,0.567 c -0.165,0.137 -0.452,0.206 -0.86,0.206 h -0.489 c -0.081,0.081 -0.122,0.15 -0.122,0.206 0.11,0.111 0.191,0.174 0.247,0.199 l 4.404,0.123 2.772,0.125 c 2.424,0 4.327,-0.273 5.713,-0.815 1.878,-0.679 3.305,-1.906 4.282,-3.669 0.275,-0.598 0.412,-1.228 0.412,-1.881 0,-0.625 -0.069,-1.185 -0.206,-1.67 C 50.532,7.706 50.439,7.363 50.382,7.178 50.221,6.796 50.1,6.511 50.015,6.316 49.283,5.313 48.208,4.486 46.794,3.831 45.679,3.34 44.359,2.979 42.835,2.729 l 1.879,-1.264 0.897,-0.73 c 0.978,-0.847 2.134,-3.102 3.466,-6.777 0.599,-1.682 1.415,-3.004 2.449,-3.956 0.218,-0.162 0.436,-0.243 0.654,-0.243 0.299,0 0.598,0.106 0.897,0.324 l 0.817,0.896 c 0.081,0.163 0.149,0.45 0.202,0.86 0,0.405 -0.066,0.762 -0.202,1.06 -0.138,0.299 -0.356,0.61 -0.655,0.934 0.165,0 0.315,0.051 0.449,0.125 0.545,-0.692 0.816,-1.408 0.816,-2.156 0,-0.329 -0.025,-0.573 -0.081,-0.704 z m 58.994,-1.788 c -0.217,-0.112 -0.682,-0.163 -1.389,-0.163 h -1.547 -2.081 -0.613 -0.736 c -0.081,0.299 0,0.538 0.246,0.7 l 1.427,0.373 c 0.355,0.273 0.53,0.623 0.53,1.072 0,0.322 -0.079,0.697 -0.243,1.109 l -0.49,1.233 -0.859,2.429 c -0.272,0.91 -0.582,1.645 -0.935,2.217 -1.034,-0.428 -2.096,-0.647 -3.183,-0.647 -0.844,0 -1.586,0.094 -2.224,0.286 -0.638,0.187 -1.3,0.523 -1.979,1.017 l -1.102,0.734 c -0.299,0.218 -0.557,0.542 -0.775,0.978 l -1.999,-4.772 -0.736,-1.688 c -0.271,-0.76 -0.405,-1.365 -0.405,-1.8 0,-0.605 0.15,-1.147 0.449,-1.645 0.052,-0.137 0.38,-0.287 0.977,-0.449 0.571,-0.081 0.856,-0.273 0.856,-0.572 l -0.121,-0.373 c -0.056,-0.026 -0.177,-0.051 -0.367,-0.081 -0.19,-0.026 -0.489,-0.07 -0.896,-0.121 h -2.041 -1.306 -0.449 c -1.198,0 -1.862,0.077 -1.999,0.244 -0.081,0.405 0.137,0.655 0.656,0.729 l 0.977,0.25 c 1.169,1.17 2.254,2.921 3.264,5.263 l 2.242,5.75 c -0.732,1.234 -1.211,1.969 -1.425,2.193 -0.655,0.791 -1.39,1.195 -2.203,1.195 h -0.735 c -0.615,0 -1.15,-0.236 -1.604,-0.697 C 90.386,3.856 90.223,3.625 90.123,3.383 90.013,3.139 89.958,2.828 89.958,2.441 V 1.795 l 0.244,-0.779 0.203,-0.655 c 0,-0.162 -0.093,-0.255 -0.282,-0.287 -0.247,0 -0.471,0.125 -0.674,0.375 C 89.243,0.691 89.1,0.91 89.019,1.096 88.938,1.29 88.87,1.452 88.816,1.589 l -0.123,1.015 c 0,1.065 0.395,1.906 1.183,2.536 0.926,0.759 1.903,1.139 2.932,1.139 h 0.612 c 0.325,-0.062 0.568,-0.125 0.733,-0.217 0.626,-0.269 1.24,-0.58 1.837,-0.966 0.598,-0.38 1.072,-0.76 1.427,-1.14 l 0.206,0.449 0.333,0.691 3.996,10.939 c 0.081,0.225 0.243,0.357 0.489,0.412 0.189,0 0.413,-0.136 0.654,-0.412 l 0.405,-0.778 2.735,-8.068 2.654,-8.085 c 1.114,-3.339 2.069,-6.019 2.856,-8.037 0.081,-0.213 0.448,-0.435 1.1,-0.648 0.654,-0.169 0.978,-0.331 0.978,-0.498 -0.026,-0.025 -0.041,-0.056 -0.041,-0.081 -0.106,-0.218 -0.229,-0.394 -0.365,-0.53 z m -7.222,10.317 c -0.623,2.286 -1.461,4.94 -2.501,7.949 l -1.632,4.897 -1.375,-3.34 -2.099,-5.869 c 0.933,-1.301 1.707,-2.23 2.334,-2.778 0.542,-0.436 1.209,-0.816 2.002,-1.139 0.409,-0.169 0.871,-0.243 1.39,-0.243 0.741,0 1.364,0.173 1.881,0.523 z m 67.645,16.079 c 0.081,-0.542 -0.056,-0.903 -0.412,-1.098 l -1.466,-0.491 c -0.324,-0.074 -0.57,-0.287 -0.736,-0.604 -0.732,-1.327 -1.236,-2.736 -1.507,-4.23 -0.109,-0.648 -0.203,-1.408 -0.286,-2.274 -0.081,-0.873 -0.125,-1.707 -0.125,-2.523 l 0.125,-3.8 v -2.542 l 0.12,-3.887 0.328,-5.483 c 0.052,-0.236 -0.11,-0.361 -0.488,-0.361 -0.247,0 -0.449,0.093 -0.615,0.287 -1.312,2.335 -3.111,5.27 -5.398,8.809 -1.801,2.852 -3.778,5.843 -5.931,8.97 l -4.214,6.124 -0.041,-8.853 v -9.468 -0.935 -0.735 c 0,-0.597 0.075,-1.065 0.225,-1.408 0.143,-0.336 0.461,-0.586 0.947,-0.755 l 1.202,-0.241 c 0.321,-0.056 0.483,-0.176 0.483,-0.368 l -0.121,-0.331 c -0.274,-0.348 -0.914,-0.529 -1.918,-0.529 l -1.267,0.044 h -0.447 c -0.166,0 -0.438,0.024 -0.816,0.081 l -0.695,-0.081 -0.571,-0.087 c -0.38,0 -0.654,0.155 -0.816,0.454 -0.081,0.217 0.041,0.449 0.369,0.692 l 0.815,0.609 c 0.652,0.985 1.099,1.932 1.346,2.861 0.11,0.461 0.191,0.977 0.243,1.551 0.056,0.566 0.084,1.258 0.084,2.081 v 2.367 1.913 1.637 1.384 1.184 1.021 0.853 0.778 0.693 0.567 0.535 0.449 1.427 1.506 0.449 c -0.084,0.656 -0.689,0.98 -1.817,0.98 -1.046,0 -1.641,0.222 -1.774,0.653 -0.029,0.167 0.034,0.306 0.184,0.431 0.149,0.123 0.373,0.222 0.672,0.303 l 1.552,0.331 1.018,0.119 c 0.435,0 0.775,-0.056 1.021,-0.162 0.218,-0.056 0.49,-0.255 0.814,-0.617 2.669,-3.233 5.183,-6.591 7.551,-10.075 1.931,-2.909 4.229,-6.733 6.895,-11.462 v 0.899 1.22 c 0,1.252 0.032,2.953 0.1,5.102 0.069,2.149 0.103,3.481 0.103,4 0,1.631 0.059,2.983 0.184,4.056 0.121,1.077 0.317,2.291 0.592,3.655 0.134,0.704 0.402,1.334 0.794,1.894 0.395,0.561 0.932,0.959 1.61,1.209 l 0.775,0.119 c 0.328,0 0.605,-0.068 0.838,-0.207 0.231,-0.136 0.386,-0.361 0.471,-0.69 z m 105.217,0.565 c 0,-0.322 -0.382,-0.621 -1.144,-0.896 -1.167,-0.436 -1.986,-0.834 -2.449,-1.184 0,-1.009 0.069,-2.941 0.205,-5.806 0.137,-2.859 0.204,-5.239 0.204,-7.151 0,-2.43 0.062,-4.33 0.183,-5.719 0.125,-1.395 0.252,-2.192 0.387,-2.411 0,-0.99 0.085,-1.682 0.247,-2.055 0.164,-0.375 0.557,-0.679 1.182,-0.929 h 0.614 0.527 c 0.221,0 0.355,-0.062 0.41,-0.192 0.081,-0.269 0.029,-0.449 -0.164,-0.537 l -0.53,-0.244 h -1.714 -1.633 -0.528 c -1.333,0 -2.367,0.077 -3.103,0.244 -0.105,0.081 -0.174,0.15 -0.201,0.206 -0.029,0.106 0.027,0.231 0.161,0.361 0.138,0.137 0.564,0.25 1.287,0.331 0.72,0.081 1.082,0.28 1.082,0.609 l -0.122,6.81 -0.125,6.901 v 4.443 l 0.247,3.594 c -1.615,-2.23 -3.019,-4.597 -4.231,-7.101 -0.937,-1.982 -1.788,-4.125 -2.537,-6.404 l -2.142,-6.828 c -0.074,-0.293 -0.27,-0.393 -0.586,-0.312 -0.385,0.137 -0.583,0.405 -0.583,0.817 0,0.242 0.095,0.598 0.284,1.066 l 0.574,1.302 c -1.504,3.319 -2.931,6.21 -4.276,8.664 -0.878,1.644 -1.702,3.078 -2.471,4.342 -0.766,1.251 -1.622,2.523 -2.554,3.801 l 0.118,-7.048 0.368,-13.31 c 0,-0.276 0.112,-0.519 0.321,-0.737 l 0.787,-0.491 1.708,-0.287 c 0.137,-0.324 0.061,-0.567 -0.231,-0.729 h -0.511 l -2.074,-0.123 H 255 c -0.308,0 -0.717,-0.044 -1.211,-0.121 l -1.299,0.077 h -0.464 c -0.361,0.086 -0.623,0.136 -0.796,0.167 0.163,0.243 0.696,0.53 1.593,0.854 0.898,0.336 1.345,0.76 1.345,1.272 l 0.11,7.163 0.218,8.391 v 6.914 c -0.081,0.325 -0.328,0.619 -0.735,0.862 -0.275,0.217 -0.68,0.435 -1.225,0.653 h -0.407 l -1.224,-0.125 c -0.299,0 -0.461,0.1 -0.49,0.287 -0.052,0.218 0.014,0.387 0.206,0.491 l 0.571,0.206 h 1.182 1.145 c 0.786,0 1.453,-0.136 1.995,-0.386 0.546,-0.262 1.047,-0.785 1.511,-1.576 l 4.324,-7.219 c 1.469,-2.58 2.965,-5.545 4.488,-8.898 l 2.691,6.897 c 1.172,2.86 2.342,5.065 3.51,6.61 1.523,2.094 3.426,3.794 5.713,5.096 l 0.408,0.125 c 0.271,0 0.496,-0.063 0.674,-0.181 0.176,-0.118 0.248,-0.306 0.224,-0.556 z m 60.296,-26.961 c -0.211,-0.112 -0.672,-0.163 -1.383,-0.163 h -1.551 -2.081 -0.616 -0.734 c -0.076,0.299 0,0.538 0.248,0.7 l 1.427,0.373 c 0.354,0.273 0.53,0.623 0.53,1.072 0,0.322 -0.074,0.697 -0.243,1.109 l -0.493,1.233 -0.86,2.429 c -0.268,0.91 -0.579,1.645 -0.933,2.217 -1.036,-0.428 -2.094,-0.647 -3.178,-0.647 -0.848,0 -1.589,0.094 -2.231,0.286 -0.634,0.187 -1.295,0.523 -1.975,1.017 l -1.103,0.734 c -0.299,0.218 -0.56,0.542 -0.771,0.978 l -2.006,-4.772 -0.73,-1.688 c -0.273,-0.76 -0.405,-1.365 -0.405,-1.8 0,-0.605 0.151,-1.147 0.449,-1.645 0.049,-0.137 0.373,-0.287 0.971,-0.449 0.574,-0.081 0.861,-0.273 0.861,-0.572 l -0.125,-0.373 c -0.05,-0.026 -0.175,-0.051 -0.361,-0.081 -0.194,-0.026 -0.493,-0.07 -0.898,-0.121 h -2.043 -1.309 -0.447 c -1.197,0 -1.858,0.077 -1.994,0.244 -0.088,0.405 0.136,0.655 0.648,0.729 l 0.984,0.25 c 1.17,1.17 2.254,2.921 3.264,5.263 l 2.244,5.75 c -0.736,1.234 -1.216,1.969 -1.433,2.193 -0.649,0.791 -1.383,1.195 -2.201,1.195 h -0.734 c -0.616,0 -1.153,-0.236 -1.6,-0.697 -0.218,-0.218 -0.38,-0.449 -0.48,-0.691 -0.106,-0.244 -0.169,-0.555 -0.169,-0.942 V 1.795 l 0.25,-0.779 0.199,-0.655 c 0,-0.162 -0.088,-0.255 -0.28,-0.287 -0.243,0 -0.468,0.125 -0.674,0.375 -0.206,0.242 -0.347,0.461 -0.429,0.647 -0.081,0.194 -0.15,0.356 -0.199,0.493 l -0.125,1.015 c 0,1.065 0.392,1.906 1.184,2.536 0.922,0.759 1.906,1.139 2.928,1.139 h 0.609 c 0.324,-0.062 0.574,-0.125 0.736,-0.217 0.623,-0.269 1.233,-0.58 1.837,-0.966 0.598,-0.38 1.072,-0.76 1.427,-1.14 l 0.199,0.449 0.338,0.691 3.998,10.939 c 0.081,0.225 0.243,0.357 0.493,0.412 0.193,0 0.406,-0.136 0.649,-0.412 l 0.41,-0.778 2.735,-8.068 2.655,-8.085 c 1.107,-3.339 2.061,-6.019 2.852,-8.037 0.081,-0.213 0.448,-0.435 1.097,-0.648 0.66,-0.169 0.983,-0.331 0.983,-0.498 -0.024,-0.025 -0.037,-0.056 -0.037,-0.081 -0.111,-0.218 -0.236,-0.394 -0.374,-0.53 z m -7.22,10.317 c -0.623,2.286 -1.464,4.94 -2.499,7.949 l -1.631,4.897 -1.378,-3.34 -2.098,-5.869 c 0.933,-1.301 1.707,-2.23 2.33,-2.778 0.549,-0.436 1.209,-0.816 2.006,-1.139 0.41,-0.169 0.873,-0.243 1.389,-0.243 0.742,0 1.365,0.173 1.881,0.523 z m 65.119,9.874 c 0.436,-0.866 0.823,-1.913 1.177,-3.141 0.274,-1.22 0.412,-2.298 0.412,-3.221 0,-1.358 -0.199,-2.752 -0.592,-4.185 -0.399,-1.421 -0.948,-2.791 -1.657,-4.1 -1.134,-2.068 -2.853,-3.576 -5.134,-4.523 -1.906,-0.79 -4.223,-1.184 -6.939,-1.184 l -3.016,0.163 -3.55,0.486 -1.059,-0.149 -1.802,-0.337 h -0.727 c 0.162,0.437 0.797,0.81 1.913,1.146 1.114,0.324 1.675,0.76 1.675,1.309 v 22.839 c 0,0.298 -0.13,0.516 -0.387,0.653 -0.262,0.13 -0.609,0.206 -1.047,0.206 h -0.734 -0.855 c -0.104,0.062 -0.148,0.174 -0.118,0.31 0.051,0.151 0.162,0.213 0.324,0.213 l 4.074,0.123 3.882,0.125 c 0.704,0 1.365,-0.011 1.976,-0.048 0.609,-0.033 1.177,-0.1 1.693,-0.2 0.492,0 0.997,-0.055 1.508,-0.173 0.523,-0.125 1.215,-0.325 2.081,-0.6 1.656,-0.51 3.014,-1.202 4.061,-2.055 1.047,-0.861 1.994,-2.082 2.841,-3.657 z M 394.63,9.195 c -0.979,2.106 -2.587,3.713 -4.822,4.797 -1.963,0.978 -4.217,1.471 -6.746,1.471 h -0.984 l -1.721,-0.169 v -24.19 l 0.324,-0.486 2.08,-0.248 h 2.244 c 1.931,0 3.55,0.262 4.859,0.772 1.519,0.597 2.84,1.658 3.956,3.177 0.734,1.147 1.302,2.43 1.693,3.85 0.394,1.427 0.593,2.865 0.593,4.335 0,2.344 -0.486,4.567 -1.476,6.691 z m 59.898,-18.097 c -0.162,-0.579 -0.373,-1.047 -0.635,-1.388 -0.255,-0.35 -0.685,-0.574 -1.283,-0.686 h -1.098 c -0.547,0 -1.008,0.075 -1.387,0.223 -0.382,0.15 -0.755,0.4 -1.105,0.755 -0.978,1.065 -1.955,2.74 -2.939,5.026 -1.11,2.667 -1.9,4.343 -2.368,5.034 -1.139,1.682 -2.647,2.829 -4.523,3.426 0.051,0.325 0.287,0.487 0.692,0.487 l 0.941,-0.081 c 1.6,0 2.89,0.106 3.849,0.329 0.973,0.224 1.832,0.761 2.592,1.632 0.897,0.955 1.346,2.082 1.346,3.396 l -0.074,0.817 -0.206,1.022 c -0.306,1.114 -0.885,2.011 -1.758,2.678 -0.864,0.667 -1.918,1.146 -3.146,1.445 l -1.258,0.162 h -1.88 -1.384 -1.022 V 6.659 l 0.162,-8.466 v -6.839 c 0,-0.324 0.063,-0.611 0.194,-0.854 0.131,-0.25 0.317,-0.429 0.566,-0.542 l 1.016,-0.162 c 0.255,-0.049 0.43,-0.199 0.51,-0.447 l -1.513,-0.162 -1.869,-0.04 h -0.492 l -1.513,0.04 h -1.464 -0.412 c 0.081,0.217 0.454,0.398 1.102,0.535 0.655,0.074 1.022,0.268 1.103,0.567 l 0.368,2.235 0.125,2.692 v 2.28 16.658 c 0,0.274 -0.099,0.487 -0.287,0.654 l -0.859,0.567 c -0.162,0.137 -0.45,0.206 -0.855,0.206 h -0.491 c -0.081,0.081 -0.125,0.15 -0.125,0.206 0.113,0.111 0.193,0.174 0.25,0.199 l 4.403,0.123 2.772,0.125 c 2.423,0 4.331,-0.273 5.714,-0.815 1.874,-0.679 3.307,-1.906 4.285,-3.669 0.268,-0.598 0.405,-1.228 0.405,-1.881 0,-0.625 -0.069,-1.185 -0.199,-1.67 -0.137,-0.493 -0.236,-0.836 -0.287,-1.021 -0.162,-0.382 -0.285,-0.667 -0.366,-0.862 -0.737,-1.003 -1.814,-1.83 -3.222,-2.485 -1.121,-0.491 -2.442,-0.852 -3.963,-1.102 l 1.883,-1.264 0.896,-0.73 c 0.971,-0.847 2.131,-3.102 3.463,-6.777 0.6,-1.682 1.422,-3.004 2.448,-3.956 0.22,-0.162 0.438,-0.243 0.656,-0.243 0.298,0 0.597,0.106 0.896,0.324 L 454,-9.021 c 0.079,0.163 0.148,0.45 0.204,0.86 0,0.405 -0.068,0.762 -0.204,1.06 -0.139,0.299 -0.357,0.61 -0.656,0.934 0.162,0 0.313,0.051 0.449,0.125 0.549,-0.692 0.816,-1.408 0.816,-2.156 0,-0.329 -0.026,-0.573 -0.081,-0.704 z m 58.628,24.034 c 0.131,-0.542 -0.168,-0.903 -0.916,-1.077 -0.747,-0.174 -1.153,-0.287 -1.208,-0.343 -2.909,-2.175 -5.11,-4.952 -6.604,-8.355 -1.389,-3.152 -2.08,-6.628 -2.08,-10.426 0,-1.279 0.074,-2.606 0.236,-3.989 0.086,-0.386 0.742,-0.697 1.962,-0.94 0.542,-0.081 0.853,-0.331 0.941,-0.734 l -1.955,-0.121 -2.293,0.077 h -1.383 -0.817 -0.853 -0.449 c -0.169,0 -0.348,0.03 -0.554,0.092 -0.206,0.056 -0.35,0.174 -0.431,0.355 0.114,0.25 0.642,0.375 1.596,0.375 0.978,0 1.545,0.31 1.712,0.933 l 0.243,1.958 v 2.005 c 0,3.338 -0.623,6.597 -1.862,9.767 -1.239,3.166 -2.997,6.143 -5.265,8.915 -0.386,0.461 -0.871,0.692 -1.457,0.692 -0.25,0 -0.542,-0.087 -0.896,-0.261 -0.35,-0.181 -0.649,-0.674 -0.91,-1.496 -0.262,-0.809 -0.598,-1.14 -1.035,-0.971 0,0.866 0.087,1.631 0.262,2.305 0.18,0.66 0.573,1.227 1.171,1.688 0.137,0.111 0.336,0.255 0.611,0.454 0.105,0.074 0.286,0.176 0.524,0.28 0.243,0.107 0.572,0.195 0.977,0.244 0.38,0 0.716,-0.112 1.015,-0.325 1.663,-1.146 3.09,-2.747 4.28,-4.815 0.436,-0.815 1.39,-2.828 2.847,-6.036 l 1.271,-3.184 c 1.832,4.217 3.028,6.816 3.595,7.793 1.633,2.828 3.625,4.897 5.974,6.205 0.324,0.107 0.66,0.063 1.015,-0.148 0.355,-0.199 0.599,-0.512 0.736,-0.917 z m 59.972,0.574 c 0.088,-0.542 -0.055,-0.903 -0.41,-1.098 l -1.47,-0.491 c -0.325,-0.074 -0.568,-0.287 -0.73,-0.604 -0.734,-1.327 -1.239,-2.736 -1.513,-4.23 -0.106,-0.648 -0.199,-1.408 -0.28,-2.274 C 568.644,6.136 568.6,5.302 568.6,4.486 l 0.125,-3.8 v -2.542 l 0.118,-3.887 0.329,-5.483 c 0.058,-0.236 -0.104,-0.361 -0.491,-0.361 -0.243,0 -0.449,0.093 -0.611,0.287 -1.309,2.335 -3.115,5.27 -5.395,8.809 -1.806,2.852 -3.788,5.843 -5.93,8.97 l -4.218,6.124 -0.042,-8.853 v -9.468 -0.935 -0.735 c 0,-0.597 0.074,-1.065 0.223,-1.408 0.143,-0.336 0.46,-0.586 0.947,-0.755 l 1.202,-0.241 c 0.319,-0.056 0.479,-0.176 0.479,-0.368 l -0.118,-0.331 c -0.266,-0.348 -0.908,-0.529 -1.918,-0.529 l -1.264,0.044 h -0.45 c -0.162,0 -0.435,0.024 -0.81,0.081 l -0.697,-0.081 -0.573,-0.087 c -0.38,0 -0.648,0.155 -0.817,0.454 -0.081,0.217 0.044,0.449 0.368,0.692 l 0.818,0.609 c 0.653,0.985 1.102,1.932 1.35,2.861 0.107,0.461 0.188,0.977 0.236,1.551 0.058,0.566 0.088,1.258 0.088,2.081 v 2.367 1.913 1.637 1.384 1.184 1.021 0.853 0.778 0.693 0.567 0.535 0.449 1.427 1.506 0.449 c -0.088,0.656 -0.685,0.98 -1.818,0.98 -1.047,0 -1.64,0.222 -1.776,0.653 -0.026,0.167 0.032,0.306 0.187,0.431 0.149,0.123 0.373,0.222 0.667,0.303 l 1.557,0.331 1.021,0.119 c 0.431,0 0.774,-0.056 1.017,-0.162 0.218,-0.056 0.491,-0.255 0.815,-0.617 2.666,-3.233 5.183,-6.591 7.55,-10.075 1.932,-2.909 4.223,-6.733 6.891,-11.462 v 0.899 1.22 c 0,1.252 0.037,2.953 0.099,5.102 0.074,2.149 0.112,3.481 0.112,4 0,1.631 0.055,2.983 0.173,4.056 0.125,1.077 0.325,2.291 0.6,3.655 0.137,0.704 0.398,1.334 0.79,1.894 0.394,0.561 0.936,0.959 1.614,1.209 l 0.772,0.119 c 0.331,0 0.611,-0.068 0.836,-0.207 0.236,-0.136 0.391,-0.361 0.472,-0.69 z" /></g></g></g></g></svg>