<svg xmlns="http://www.w3.org/2000/svg" viewBox="0 0 596.6 178.1"><defs><style>.cls-1{fill:#53bae4;}</style></defs><title>footer-celeste</title><g id="Capa_2" data-name="Capa 2"><g id="Capa_1-2" data-name="Capa 1"><path class="cls-1" d="M0,177.33H595.4c.9.1,1.2,1.4,1.2.4V20.83c0-1.1-.4-1.3-1.3-1.2-4.4.1-8.8.2-13.2.2h-2v-.5c2.5-.9,5.2-.4,8.1-1.3h-4.1c-.8,0-1.5.1-2.3.1-.3.1-.7.1-.9.4a1,1,0,0,1,.9-.4,3.44,3.44,0,0,0,2-.4c1.2-.2,2.5-.5,3.7-.7-.1-.6-.5-.7-1-.6-1,0-2,.1-2.9.1-.9.4-1.8-.3-3,.4.8-.5,1.3-.3,1.7-.7,1.6-.4,3.5,0,4.9-1.4-.1-.7-.6-.3-1-.3a7.6,7.6,0,0,1-2.5-.2,9.09,9.09,0,0,1,2.9-.8c.1-.2.1-.3-.1-.4a1.49,1.49,0,0,0-.9-.2,4.21,4.21,0,0,0-1.8.4c.4-.2.7-.1.7-.5-.2-.4-.6-.4-1-.4h-.4c.8-.1,1.8-.1,2.7-.2a2,2,0,0,1,.8.1.6.6,0,0,0,.4-.1,3.55,3.55,0,0,1,.9-.4,2.19,2.19,0,0,0,.5-.3c1-.4,2.2-.4,3.2-1a4.15,4.15,0,0,0-1.9-.1,36.69,36.69,0,0,1-6.6.5,1.29,1.29,0,0,0-1.2-.1,36.42,36.42,0,0,1-5.7.4c-.5,0-1.1.1-1.5-.3l.1-.2h.1a1.39,1.39,0,0,0,1.5.4,47.6,47.6,0,0,1,6.5-.6,1.12,1.12,0,0,1,1.4-.7c1.9,0,3.6-.6,5.5-.8.1-.6-.5-.3-.6-.5,0-.4.4-.3.6-.4.3-.3.1-.5-.1-.7s-.5,0-.5-.3a12.93,12.93,0,0,0,2.1-.7,8.38,8.38,0,0,0,1-.2c-1.7-.6-3.3.4-4.8-.6,1.2-.1,2.2-.7,3.4-.6.3,0,1,.3,1-.3s-.6-.4-.9-.3c-.6,0-1.2.3-1.7-.3.6-.6,1.5-.3,2.2-.8a1.7,1.7,0,0,1-.7-.1c-.5-.1-.6-.5-.7-.9.1-.2.5-.6-.2-.5-1.2.1-2.5.2-3.7.2-.9,0-2.4.4-2.6.2-.9-1-1.5.5-2.2.1-.4-.2-.6.6-1.1.3-1.3-.9-2.5-.3-3.8.3,0,.1-.1.1-.1.2.1.4.5.6.4,1a1.34,1.34,0,0,0,.2.8c-.3-.3-.2-.5-.4-.7s-.6-.4-1-.2-.7.6-1.2.3c-.2-.2,0-.4.1-.7.6-1.4.5-1.6-1.1-1.8-2.9-.3-5.8-.6-8.7-.8-.7,0-1.1-.9-1.7-.5-.8.6-1.4.2-2.1-.2-.4-.2-.9-.4-1.1-.3a5.81,5.81,0,0,1-4.1.6c-3.9-.5-7.9.4-11.9-.2a1.09,1.09,0,0,0-.5.1c-2,0-4,.7-6-.1a.64.64,0,0,0-.6,0,21.84,21.84,0,0,1-5.7.3c-.3,0-.5-.1-.6.2s.1.5.5.6c.2,0,.5,0,.5.4-.9.3-2.1.1-2.1-.2-.1-1-.1-1.1-1-1-3.1.3-6.3.3-9.4.3-.3,0-.8-.1-.8.3.3,1.3-.5,1-1.2,1-.3,0-.7-.1-.7.4s.5.8.7.7c1.2-.6,2.4.5,3.5.1a.25.25,0,0,1,.4.1c.1.1,0,.2-.1.2a66.75,66.75,0,0,1-8.9.3c-.8-.2-1.6-.1-2.3-.3a1,1,0,0,0,.8-.3c1.5-.8,3.3-.1,5.2-1h-9.9v-.2c1.4-.1,2.8-.3,4.3-.4-.9-1-1.8-.2-2.7-.3-4.8-.4-9.6.4-14.4.4-8.8-.2-17.6,1.3-26.5.6-5.3-.4-10.6-.1-15.9,0-3.6.1-7.2.3-10.7.6-4.2.4-8.5.4-12.7,1.4-.5.1-1.3.4-1.7-.1s-.6-.1-.9,0c-1.4.3-2.6,2.5-4.4.6h-.2c-.3,1.3-1.4.5-2,.7-2.2.9-2.2.9-4.7,0-.2-.1-.3.1-.3.2-.7,1-1.5.5-2.3.1-1.8-.7-3.4-.3-5.5.5,1.3.2,2.2.1,3.1.7A9.62,9.62,0,0,1,406,8c-1.1-.9-2.1-.2-3.2-.1s-2.4.2-3.3-.8a1.8,1.8,0,0,0-1.6-.4,34.54,34.54,0,0,1-8.5,0c-.6-.1-1.3-.3-1.7.5.6.7,1.4.2,2.3.7a14.16,14.16,0,0,1-4.7-.5c-2.5-.9-5.2.1-7.8,0,0,.8.7.4,1,.4,2,.1,4.1-.1,6.1.2.1.1.4-.1.3.3h-.1c-2.6.1-5.2.2-7.7.2a1.55,1.55,0,0,1-1.4-.5c-.6-.6-1.1-.6-1.6.1-.3.4-1.2.7-1.3.4-.2-1.2-1.2-1.1-1.8-1-2.6.2-5.3.3-7.8,1.6-.7.4-2,1.1-2.5.3s-.8-.5-1.2-.3a5.27,5.27,0,0,1-1.2.3c-3.3.1-6.6.4-9.9-.2-.3-.1-.7-.1-.8.2-.3.6-.3.6-.5.6-1.5-.1-2.8-1.2-4.5-1-.4.1-.1-.6,0-.7,1.5-.5.6-1.7.8-2.6.2-.7-.3-.7-.8-.6-5.3.8-10.6,1.4-15.8,2.5a129.71,129.71,0,0,1-15.1,2.9c-6,.6-12.1,1.3-18.1,2.1-.3,0-.3.2-.4.4-.7.9-1.6,1-2.3,0a1.66,1.66,0,0,0-1.5-.8c-1.8-.1-3.6-.2-5.4-.2a119,119,0,0,0-13.4.7c-3.2.4-6.5.5-9.7,1s-6.2.1-9.3.8c-.6.1-1.5.4-1.8-.6-.1-.3-.5,0-.6-.1-1.1-.4-.7.7-1.1,1-.6.5-2.8-.1-3.2-.8-.7-1.1-2.9-1.9-3.4-1.2-.9,1.5-1.7.4-2.5.3,0-.5.6-.1.7-.6-1.3-.6-2.7,1.2-4-.1h-.1c-1.4,1-3-.3-4.4.5-.7-1-1.5.5-2.2-.2s-1.2-.3-1.9-.2c-1.8.4-3.7,1.3-5.6.3a1.27,1.27,0,0,0-.6-.1c-2.3.4-4.5.6-6.8.8-4.3.3-8.4,1.7-12.8,1.2-1.4-.1-2.7,1.6-4.2.8s-2.5-.2-3.7.3a2.93,2.93,0,0,1-1.6.4c-1.5,0-3.1,0-4.6-.1-2.7-.1-5.4.6-8.1.6-3.8,0-7.5.7-11.2.9-5.9.4-11.8.7-17.8.9-10,.4-20,.5-29.9,1.8-1,.1-1.9.2-2.3,1.3-.2.7-.8.5-1.3.5-2.5,0-5.1.1-7.6,0-5.9-.1-11.8-.7-17.8-1.1-7.3-.6-14.4.7-21.6,1.6-4.7.6-9.5,1.3-14.3,1.7s-9.8.1-14.7.4a65.09,65.09,0,0,1-12.5-.6,116.51,116.51,0,0,0-14.5-1.2c-3.5,0-6.9.6-10.3.7-.9,0-1.9.1-2.9.1Z"/></g></g></svg>