<svg xmlns="http://www.w3.org/2000/svg" viewBox="0 0 596.6 69.83"><defs><style>.cls-1{fill:#fff;}</style></defs><title>header-shape</title><g id="Capa_2" data-name="Capa 2"><g id="Capa_1-2" data-name="Capa 1"><path class="cls-1" d="M0,69.52H595.4c.9,0,1.2.55,1.2.16V8.17c0-.44-.4-.51-1.3-.48-4.4,0-8.8.08-13.2.08h-2V7.58c2.5-.36,5.2-.16,8.1-.51h-4.1c-.8,0-1.5,0-2.3,0a3.25,3.25,0,0,0-.9.15,2,2,0,0,1,.9-.15,8,8,0,0,0,2-.16c1.2-.08,2.5-.2,3.7-.27-.1-.24-.5-.28-1-.24-1,0-2,0-2.9,0a28.82,28.82,0,0,0-3,.16c.8-.2,1.3-.12,1.7-.28,1.6-.16,3.5,0,4.9-.55-.1-.27-.6-.11-1-.11a20.63,20.63,0,0,1-2.5-.08,20.66,20.66,0,0,1,2.9-.32c.1-.08.1-.11-.1-.15a3.43,3.43,0,0,0-.9-.08,10.73,10.73,0,0,0-1.8.15c.4-.07.7,0,.7-.19a1.81,1.81,0,0,0-1-.16h-.4c.8,0,1.8,0,2.7-.08a4.73,4.73,0,0,1,.8,0,1.36,1.36,0,0,0,.4,0c.3-.07.6-.11.9-.15a3.71,3.71,0,0,0,.5-.12c1-.16,2.2-.16,3.2-.39a10.22,10.22,0,0,0-1.9,0c-2.2.08-4.4.27-6.6.19a3.46,3.46,0,0,0-1.2,0c-1.9.16-3.8.12-5.7.16a4.53,4.53,0,0,1-1.5-.12l.1-.07h.1a3.07,3.07,0,0,0,1.5.15c2.2-.08,4.3-.27,6.5-.23.2-.28.9-.32,1.4-.28,1.9,0,3.6-.23,5.5-.31.1-.24-.5-.12-.6-.2s.4-.11.6-.15.1-.2-.1-.28-.5,0-.5-.12c.7-.11,1.5-.11,2.1-.27.2,0,.5,0,1-.08-1.7-.23-3.3.16-4.8-.23,1.2,0,2.2-.28,3.4-.24.3,0,1,.12,1-.12s-.6-.15-.9-.11a4.13,4.13,0,0,1-1.7-.12c.6-.24,1.5-.12,2.2-.32a5.47,5.47,0,0,1-.7,0c-.5,0-.6-.2-.7-.36.1-.08.5-.23-.2-.19-1.2,0-2.5.07-3.7.07-.9,0-2.4.16-2.6.08-.9-.39-1.5.2-2.2,0-.4-.08-.6.24-1.1.12a8.28,8.28,0,0,0-3.8.12s-.1,0-.1.08.5.23.4.39,0,.19.2.31c-.3-.12-.2-.19-.4-.27a2,2,0,0,0-1-.08,2,2,0,0,1-1.2.12c-.2-.08,0-.16.1-.28.6-.55.5-.63-1.1-.7C570.5.6,567.6.48,564.7.4c-.7,0-1.1-.35-1.7-.19a3.91,3.91,0,0,1-2.1-.08A4.11,4.11,0,0,0,559.8,0a14.44,14.44,0,0,1-4.1.24c-3.9-.2-7.9.15-11.9-.08a2.57,2.57,0,0,0-.5,0,38.77,38.77,0,0,1-6,0,1.51,1.51,0,0,0-.6,0c-1.9.15-3.8.15-5.7.11-.3,0-.5,0-.6.08s.1.2.5.24c.2,0,.5,0,.5.16a5.27,5.27,0,0,1-2.1-.08c-.1-.4-.1-.43-1-.4-3.1.12-6.3.12-9.4.12-.3,0-.8,0-.8.12.3.51-.5.39-1.2.39-.3,0-.7,0-.7.16s.5.31.7.27c1.2-.23,2.4.2,3.5,0a.47.47,0,0,1,.4,0c.1,0,0,.08-.1.08-3,.08-6,.2-8.9.12-.8-.08-1.6,0-2.3-.12a2.1,2.1,0,0,0,.8-.12c1.5-.31,3.3,0,5.2-.39h-9.9V.91c1.4,0,2.8-.12,4.3-.15-.9-.4-1.8-.08-2.7-.12-4.8-.16-9.6.15-14.4.15-8.8-.07-17.6.51-26.5.24-5.3-.16-10.6,0-15.9,0-3.6,0-7.2.12-10.7.24-4.2.15-8.5.15-12.7.54a4,4,0,0,1-1.7,0c-.4-.19-.6,0-.9,0-1.4.12-2.6,1-4.4.24h-.2c-.3.51-1.4.2-2,.27a10.34,10.34,0,0,1-4.7,0c-.2,0-.3,0-.3.08a3.3,3.3,0,0,1-2.3,0,17.52,17.52,0,0,0-5.5.2,17.41,17.41,0,0,1,3.1.27c-.8.12-2,.32-2.1.28a8.61,8.61,0,0,0-3.2,0,7.91,7.91,0,0,1-3.3-.32,4.15,4.15,0,0,0-1.6-.15c-2.8.15-5.7.11-8.5,0a2.69,2.69,0,0,0-1.7.19,15.36,15.36,0,0,0,2.3.28,34.67,34.67,0,0,1-4.7-.2c-2.5-.35-5.2,0-7.8,0,0,.32.7.16,1,.16,2,0,4.1,0,6.1.08.1,0,.4,0,.3.11h-.1c-2.6,0-5.2.08-7.7.08a3.33,3.33,0,0,1-1.4-.19,1.73,1.73,0,0,0-1.6,0,2.33,2.33,0,0,1-1.3.15c-.2-.47-1.2-.43-1.8-.39a46.83,46.83,0,0,0-7.8.63c-.7.15-2,.43-2.5.12a1.31,1.31,0,0,0-1.2-.12c-.4.08-.8.08-1.2.12-3.3,0-6.6.15-9.9-.08-.3,0-.7,0-.8.08-.3.23-.3.23-.5.23-1.5,0-2.8-.47-4.5-.39-.4,0-.1-.24,0-.28,1.5-.19.6-.66.8-1s-.3-.28-.8-.24c-5.3.31-10.6.55-15.8,1-5,.43-10,.94-15.1,1.14-6,.23-12.1.51-18.1.82a.42.42,0,0,0-.4.16,2.52,2.52,0,0,1-2.3,0,2.87,2.87,0,0,0-1.5-.32c-1.8,0-3.6-.07-5.4-.07-4.5,0-9,0-13.4.27-3.2.16-6.5.2-9.7.39s-6.2,0-9.3.32c-.6,0-1.5.15-1.8-.24-.1-.12-.5,0-.6,0-1.1-.16-.7.28-1.1.39a7.16,7.16,0,0,1-3.2-.31A5.91,5.91,0,0,0,241.5,5c-.9.59-1.7.16-2.5.12,0-.2.6,0,.7-.24-1.3-.23-2.7.47-4,0h-.1c-1.4.39-3-.12-4.4.2-.7-.39-1.5.19-2.2-.08a4.29,4.29,0,0,0-1.9-.08,19,19,0,0,1-5.6.12,3,3,0,0,0-.6,0c-2.3.16-4.5.23-6.8.31-4.3.12-8.4.67-12.8.47-1.4,0-2.7.63-4.2.32a8.94,8.94,0,0,0-3.7.11,6.68,6.68,0,0,1-1.6.16c-1.5,0-3.1,0-4.6,0-2.7,0-5.4.24-8.1.24-3.8,0-7.5.27-11.2.35-5.9.16-11.8.28-17.8.35-10,.16-20,.2-29.9.71-1,0-1.9.08-2.3.51-.2.27-.8.19-1.3.19-2.5,0-5.1,0-7.6,0-5.9,0-11.8-.27-17.8-.43-7.3-.23-14.4.28-21.6.63-4.7.24-9.5.51-14.3.67s-9.8,0-14.7.15c-4.2.12-8.4,0-12.5-.23C23.3,9.22,18.5,9,13.6,9c-3.5,0-6.9.23-10.3.27-.9,0-1.9,0-2.9,0Z"/></g></g></svg>